Nobel-Extra_Light.ufo
<glyph name="exclam" format="1">
  <advance width="170"/>
  <unicode hex="0021"/>
  <outline>
    <contour>
      <point x="96" y="300" type="line"/>
      <point x="93" y="129" type="line"/>
      <point x="77" y="129" type="line"/>
      <point x="74" y="300" type="line"/>
      <point x="74" y="730" type="line"/>
      <point x="96" y="730" type="line"/>
    </contour>
    <contour>
      <point x="96" y="0" type="line"/>
      <point x="74" y="0" type="line"/>
      <point x="74" y="84" type="line"/>
      <point x="96" y="84" type="line"/>
    </contour>
  </outline>
</glyph>
<glyph name="quotedbl" format="1">
  <advance width="261"/>
  <unicode hex="0022"/>
  <outline>
    <contour>
      <point x="199" y="643" type="line"/>
      <point x="196" y="553" type="line"/>
      <point x="180" y="553" type="line"/>
      <point x="177" y="643" type="line"/>
      <point x="177" y="730" type="line"/>
      <point x="199" y="730" type="line"/>
    </contour>
    <contour>
      <point x="84" y="643" type="line"/>
      <point x="81" y="553" type="line"/>
      <point x="65" y="553" type="line"/>
      <point x="62" y="643" type="line"/>
      <point x="62" y="730" type="line"/>
      <point x="84" y="730" type="line"/>
    </contour>
  </outline>
</glyph>
<glyph name="numbersign" format="1">
  <advance width="581"/>
  <unicode hex="0023"/>
  <outline>
    <contour>
      <point x="173" y="486" type="line"/>
      <point x="32" y="486" type="line"/>
      <point x="32" y="506" type="line"/>
      <point x="175" y="506" type="line"/>
      <point x="195" y="730" type="line"/>
      <point x="217" y="730" type="line"/>
      <point x="197" y="506" type="line"/>
      <point x="408" y="506" type="line"/>
      <point x="428" y="730" type="line"/>
      <point x="450" y="730" type="line"/>
      <point x="430" y="506" type="line"/>
      <point x="549" y="506" type="line"/>
      <point x="549" y="486" type="line"/>
      <point x="428" y="486" type="line"/>
      <point x="409" y="263" type="line"/>
      <point x="549" y="263" type="line"/>
      <point x="549" y="243" type="line"/>
      <point x="407" y="243" type="line"/>
      <point x="386" y="0" type="line"/>
      <point x="364" y="0" type="line"/>
      <point x="385" y="243" type="line"/>
      <point x="174" y="243" type="line"/>
      <point x="153" y="0" type="line"/>
      <point x="131" y="0" type="line"/>
      <point x="152" y="243" type="line"/>
      <point x="32" y="243" type="line"/>
      <point x="32" y="263" type="line"/>
      <point x="154" y="263" type="line"/>
    </contour>
    <contour>
      <point x="406" y="486" type="line"/>
      <point x="195" y="486" type="line"/>
      <point x="176" y="263" type="line"/>
      <point x="387" y="263" type="line"/>
    </contour>
  </outline>
</glyph>
<glyph name="dollar" format="1">
  <advance width="480"/>
  <unicode hex="0024"/>
  <outline>
    <contour>
      <point x="243" y="730" type="line"/>
      <point x="323" y="727"/>
      <point x="388" y="700"/>
      <point x="434" y="659" type="curve"/>
      <point x="420" y="643" type="line"/>
      <point x="377" y="680"/>
      <point x="317" y="707"/>
      <point x="243" y="710" type="curve"/>
      <point x="243" y="385" type="line"/>
      <point x="380" y="321"/>
      <point x="443" y="273"/>
      <point x="443" y="180" type="curve" smooth="yes"/>
      <point x="443" y="65"/>
      <point x="356" y="3"/>
      <point x="243" y="-1" type="curve"/>
      <point x="243" y="-89" type="line"/>
      <point x="223" y="-89" type="line"/>
      <point x="223" y="-1" type="line"/>
      <point x="145" y="2"/>
      <point x="78" y="44"/>
      <point x="27" y="93" type="curve"/>
      <point x="41" y="109" type="line"/>
      <point x="90" y="62"/>
      <point x="150" y="22"/>
      <point x="223" y="19" type="curve"/>
      <point x="223" y="371" type="line"/>
      <point x="106" y="425"/>
      <point x="49" y="473"/>
      <point x="49" y="566" type="curve" smooth="yes"/>
      <point x="49" y="655"/>
      <point x="115" y="727"/>
      <point x="223" y="730" type="curve"/>
      <point x="223" y="802" type="line"/>
      <point x="243" y="802" type="line"/>
    </contour>
    <contour>
      <point x="223" y="710" type="line"/>
      <point x="129" y="707"/>
      <point x="71" y="643"/>
      <point x="71" y="567" type="curve" smooth="yes"/>
      <point x="71" y="482"/>
      <point x="124" y="443"/>
      <point x="223" y="394" type="curve"/>
    </contour>
    <contour>
      <point x="243" y="19" type="line"/>
      <point x="344" y="23"/>
      <point x="421" y="78"/>
      <point x="421" y="179" type="curve" smooth="yes"/>
      <point x="421" y="261"/>
      <point x="363" y="306"/>
      <point x="243" y="362" type="curve"/>
    </contour>
  </outline>
</glyph>
<glyph name="percent" format="1">
  <advance width="712"/>
  <unicode hex="0025"/>
  <outline>
    <contour>
      <point x="52" y="553" type="curve" smooth="yes"/>
      <point x="52" y="660"/>
      <point x="105" y="742"/>
      <point x="184" y="742" type="curve" smooth="yes"/>
      <point x="265" y="742"/>
      <point x="314" y="657"/>
      <point x="314" y="556" type="curve" smooth="yes"/>
      <point x="314" y="448"/>
      <point x="261" y="365"/>
      <point x="181" y="365" type="curve" smooth="yes"/>
      <point x="117" y="365"/>
      <point x="52" y="427"/>
    </contour>
    <contour>
      <point x="611" y="730" type="line"/>
      <point x="114" y="0" type="line"/>
      <point x="90" y="0" type="line"/>
      <point x="587" y="730" type="line"/>
    </contour>
    <contour>
      <point x="398" y="176" type="curve" smooth="yes"/>
      <point x="398" y="283"/>
      <point x="451" y="365"/>
      <point x="530" y="365" type="curve" smooth="yes"/>
      <point x="611" y="365"/>
      <point x="660" y="280"/>
      <point x="660" y="179" type="curve" smooth="yes"/>
      <point x="660" y="71"/>
      <point x="607" y="-12"/>
      <point x="527" y="-12" type="curve" smooth="yes"/>
      <point x="463" y="-12"/>
      <point x="398" y="50"/>
    </contour>
    <contour>
      <point x="292" y="556" type="curve" smooth="yes"/>
      <point x="292" y="643"/>
      <point x="255" y="722"/>
      <point x="184" y="722" type="curve" smooth="yes"/>
      <point x="115" y="722"/>
      <point x="74" y="646"/>
      <point x="74" y="553" type="curve" smooth="yes"/>
      <point x="74" y="443"/>
      <point x="125" y="385"/>
      <point x="181" y="385" type="curve" smooth="yes"/>
      <point x="251" y="385"/>
      <point x="292" y="462"/>
    </contour>
    <contour>
      <point x="638" y="179" type="curve" smooth="yes"/>
      <point x="638" y="266"/>
      <point x="601" y="345"/>
      <point x="530" y="345" type="curve" smooth="yes"/>
      <point x="461" y="345"/>
      <point x="420" y="269"/>
      <point x="420" y="176" type="curve" smooth="yes"/>
      <point x="420" y="66"/>
      <point x="471" y="8"/>
      <point x="527" y="8" type="curve" smooth="yes"/>
      <point x="597" y="8"/>
      <point x="638" y="85"/>
    </contour>
  </outline>
</glyph>
<glyph name="ampersand" format="1">
  <advance width="625"/>
  <unicode hex="0026"/>
  <outline>
    <contour>
      <point x="189" y="406" type="curve"/>
      <point x="151" y="447" type="line" smooth="yes"/>
      <point x="113" y="488"/>
      <point x="79" y="533"/>
      <point x="79" y="594" type="curve" smooth="yes"/>
      <point x="79" y="682"/>
      <point x="145" y="742"/>
      <point x="232" y="742" type="curve" smooth="yes"/>
      <point x="324" y="742"/>
      <point x="382" y="680"/>
      <point x="382" y="599" type="curve" smooth="yes"/>
      <point x="382" y="516"/>
      <point x="326" y="475"/>
      <point x="220" y="403" type="curve"/>
      <point x="474" y="128" type="line"/>
      <point x="501" y="156"/>
      <point x="526" y="186"/>
      <point x="550" y="219" type="curve"/>
      <point x="567" y="206" type="line"/>
      <point x="542" y="172"/>
      <point x="516" y="140"/>
      <point x="488" y="113" type="curve"/>
      <point x="593" y="0" type="line"/>
      <point x="564" y="0" type="line"/>
      <point x="473" y="98" type="line"/>
      <point x="403" y="30"/>
      <point x="324" y="-12"/>
      <point x="237" y="-12" type="curve" smooth="yes"/>
      <point x="120" y="-12"/>
      <point x="43" y="74"/>
      <point x="43" y="179" type="curve" smooth="yes"/>
      <point x="43" y="266"/>
      <point x="102" y="345"/>
    </contour>
    <contour>
      <point x="206" y="418" type="line"/>
      <point x="305" y="484"/>
      <point x="360" y="522"/>
      <point x="360" y="600" type="curve" smooth="yes"/>
      <point x="360" y="668"/>
      <point x="309" y="722"/>
      <point x="232" y="722" type="curve" smooth="yes"/>
      <point x="158" y="722"/>
      <point x="101" y="670"/>
      <point x="101" y="594" type="curve" smooth="yes"/>
      <point x="101" y="539"/>
      <point x="133" y="498"/>
      <point x="167" y="461" type="curve" smooth="yes"/>
    </contour>
    <contour>
      <point x="459" y="113" type="curve"/>
      <point x="203" y="391" type="line"/>
      <point x="121" y="333"/>
      <point x="65" y="260"/>
      <point x="65" y="179" type="curve" smooth="yes"/>
      <point x="65" y="85"/>
      <point x="134" y="8"/>
      <point x="237" y="8" type="curve" smooth="yes"/>
      <point x="320" y="8"/>
      <point x="393" y="49"/>
    </contour>
  </outline>
</glyph>
<glyph name="quotesingle" format="1">
  <advance width="146"/>
  <unicode hex="0027"/>
  <outline>
    <contour>
      <point x="84" y="643" type="line"/>
      <point x="81" y="553" type="line"/>
      <point x="65" y="553" type="line"/>
      <point x="62" y="643" type="line"/>
      <point x="62" y="730" type="line"/>
      <point x="84" y="730" type="line"/>
    </contour>
  </outline>
</glyph>
<glyph name="parenleft" format="1">
  <advance width="293"/>
  <unicode hex="0028"/>
  <outline>
    <contour>
      <point x="278" y="-195" type="line"/>
      <point x="128" y="-75"/>
      <point x="43" y="87"/>
      <point x="43" y="289" type="curve" smooth="yes"/>
      <point x="43" y="491"/>
      <point x="128" y="653"/>
      <point x="278" y="773" type="curve"/>
      <point x="278" y="750" type="line"/>
      <point x="147" y="631"/>
      <point x="65" y="483"/>
      <point x="65" y="289" type="curve" smooth="yes"/>
      <point x="65" y="95"/>
      <point x="140" y="-40"/>
      <point x="278" y="-172" type="curve"/>
    </contour>
  </outline>
</glyph>
<glyph name="parenright" format="1">
  <advance width="293"/>
  <unicode hex="0029"/>
  <outline>
    <contour>
      <point x="15" y="773" type="line"/>
      <point x="165" y="653"/>
      <point x="250" y="491"/>
      <point x="250" y="289" type="curve" smooth="yes"/>
      <point x="250" y="87"/>
      <point x="165" y="-75"/>
      <point x="15" y="-195" type="curve"/>
      <point x="15" y="-172" type="line"/>
      <point x="146" y="-53"/>
      <point x="228" y="95"/>
      <point x="228" y="289" type="curve" smooth="yes"/>
      <point x="228" y="483"/>
      <point x="153" y="618"/>
      <point x="15" y="750" type="curve"/>
    </contour>
  </outline>
</glyph>
<glyph name="asterisk" format="1">
  <advance width="377"/>
  <unicode hex="002A"/>
  <outline>
    <contour>
      <point x="45" y="617" type="line"/>
      <point x="52" y="638" type="line"/>
      <point x="181" y="593" type="line"/>
      <point x="177" y="730" type="line"/>
      <point x="199" y="730" type="line"/>
      <point x="196" y="593" type="line"/>
      <point x="325" y="638" type="line"/>
      <point x="332" y="617" type="line"/>
      <point x="201" y="578" type="line"/>
      <point x="285" y="468" type="line"/>
      <point x="267" y="455" type="line"/>
      <point x="188" y="570" type="line"/>
      <point x="110" y="455" type="line"/>
      <point x="92" y="468" type="line"/>
      <point x="175" y="578" type="line"/>
    </contour>
  </outline>
</glyph>
<glyph name="plus" format="1">
  <advance width="483"/>
  <unicode hex="002B"/>
  <outline>
    <contour>
      <point x="446" y="320" type="line"/>
      <point x="253" y="320" type="line"/>
      <point x="253" y="125" type="line"/>
      <point x="231" y="125" type="line"/>
      <point x="231" y="320" type="line"/>
      <point x="37" y="320" type="line"/>
      <point x="37" y="340" type="line"/>
      <point x="231" y="340" type="line"/>
      <point x="231" y="537" type="line"/>
      <point x="253" y="537" type="line"/>
      <point x="253" y="340" type="line"/>
      <point x="446" y="340" type="line"/>
    </contour>
  </outline>
</glyph>
<glyph name="hyphen" format="1">
  <advance width="334"/>
  <unicode hex="002D"/>
  <unicode hex="2010"/>
  <unicode hex="2011"/>
  <outline>
    <contour>
      <point x="272" y="216" type="line"/>
      <point x="62" y="216" type="line"/>
      <point x="62" y="236" type="line"/>
      <point x="272" y="236" type="line"/>
    </contour>
  </outline>
</glyph>
<glyph name="period" format="1">
  <advance width="146"/>
  <unicode hex="002E"/>
  <outline>
    <contour>
      <point x="84" y="0" type="line"/>
      <point x="62" y="0" type="line"/>
      <point x="62" y="84" type="line"/>
      <point x="84" y="84" type="line"/>
    </contour>
  </outline>
</glyph>
<glyph name="slash" format="1">
  <advance width="351"/>
  <unicode hex="002F"/>
  <outline>
    <contour>
      <point x="309" y="730" type="line"/>
      <point x="62" y="0" type="line"/>
      <point x="42" y="0" type="line"/>
      <point x="289" y="730" type="line"/>
    </contour>
  </outline>
</glyph>
<glyph name="zero" format="1">
  <advance width="597"/>
  <unicode hex="0030"/>
  <outline>
    <contour>
      <point x="41" y="357" type="curve" smooth="yes"/>
      <point x="41" y="568"/>
      <point x="116" y="742"/>
      <point x="300" y="742" type="curve" smooth="yes"/>
      <point x="476" y="742"/>
      <point x="556" y="560"/>
      <point x="556" y="372" type="curve" smooth="yes"/>
      <point x="556" y="161"/>
      <point x="479" y="-12"/>
      <point x="295" y="-12" type="curve" smooth="yes"/>
      <point x="119" y="-12"/>
      <point x="41" y="169"/>
    </contour>
    <contour>
      <point x="534" y="371" type="curve" smooth="yes"/>
      <point x="534" y="547"/>
      <point x="464" y="722"/>
      <point x="300" y="722" type="curve" smooth="yes"/>
      <point x="128" y="722"/>
      <point x="63" y="555"/>
      <point x="63" y="358" type="curve" smooth="yes"/>
      <point x="63" y="182"/>
      <point x="131" y="8"/>
      <point x="295" y="8" type="curve" smooth="yes"/>
      <point x="467" y="8"/>
      <point x="534" y="174"/>
    </contour>
  </outline>
</glyph>
<glyph name="one" format="1">
  <advance width="239"/>
  <unicode hex="0031"/>
  <outline>
    <contour>
      <point x="165" y="0" type="line"/>
      <point x="143" y="0" type="line"/>
      <point x="143" y="677" type="line"/>
      <point x="122" y="641"/>
      <point x="67" y="596"/>
      <point x="15" y="590" type="curve"/>
      <point x="15" y="610" type="line"/>
      <point x="70" y="616"/>
      <point x="130" y="672"/>
      <point x="149" y="730" type="curve"/>
      <point x="165" y="730" type="line"/>
    </contour>
  </outline>
</glyph>
<glyph name="two" format="1">
  <advance width="510"/>
  <unicode hex="0032"/>
  <outline>
    <contour>
      <point x="37" y="552" type="line"/>
      <point x="53" y="665"/>
      <point x="137" y="742"/>
      <point x="253" y="742" type="curve" smooth="yes"/>
      <point x="376" y="742"/>
      <point x="461" y="662"/>
      <point x="461" y="544" type="curve" smooth="yes"/>
      <point x="461" y="464"/>
      <point x="430" y="418"/>
      <point x="374" y="354" type="curve" smooth="yes"/>
      <point x="78" y="20" type="line"/>
      <point x="465" y="20" type="line"/>
      <point x="465" y="0" type="line"/>
      <point x="33" y="0" type="line"/>
      <point x="358" y="368" type="line" smooth="yes"/>
      <point x="411" y="428"/>
      <point x="439" y="471"/>
      <point x="439" y="545" type="curve" smooth="yes"/>
      <point x="439" y="650"/>
      <point x="362" y="722"/>
      <point x="253" y="722" type="curve" smooth="yes"/>
      <point x="147" y="722"/>
      <point x="72" y="650"/>
      <point x="59" y="552" type="curve"/>
    </contour>
  </outline>
</glyph>
<glyph name="three" format="1">
  <advance width="548"/>
  <unicode hex="0033"/>
  <outline>
    <contour>
      <point x="277" y="384" type="curve" smooth="yes"/>
      <point x="191" y="384" type="line"/>
      <point x="191" y="404" type="line"/>
      <point x="283" y="404" type="line" smooth="yes"/>
      <point x="383" y="404"/>
      <point x="444" y="481"/>
      <point x="444" y="566" type="curve" smooth="yes"/>
      <point x="444" y="662"/>
      <point x="368" y="722"/>
      <point x="269" y="722" type="curve" smooth="yes"/>
      <point x="174" y="722"/>
      <point x="118" y="680"/>
      <point x="75" y="621" type="curve"/>
      <point x="58" y="633" type="line"/>
      <point x="104" y="697"/>
      <point x="169" y="742"/>
      <point x="269" y="742" type="curve" smooth="yes"/>
      <point x="383" y="742"/>
      <point x="466" y="674"/>
      <point x="466" y="567" type="curve" smooth="yes"/>
      <point x="466" y="479"/>
      <point x="405" y="407"/>
      <point x="333" y="396" type="curve"/>
      <point x="425" y="383"/>
      <point x="495" y="314"/>
      <point x="495" y="206" type="curve" smooth="yes"/>
      <point x="495" y="72"/>
      <point x="396" y="-12"/>
      <point x="258" y="-12" type="curve" smooth="yes"/>
      <point x="154" y="-12"/>
      <point x="73" y="37"/>
      <point x="20" y="101" type="curve"/>
      <point x="36" y="114" type="line"/>
      <point x="87" y="54"/>
      <point x="162" y="8"/>
      <point x="258" y="8" type="curve" smooth="yes"/>
      <point x="382" y="8"/>
      <point x="473" y="85"/>
      <point x="473" y="205" type="curve" smooth="yes"/>
      <point x="473" y="315"/>
      <point x="399" y="384"/>
    </contour>
  </outline>
</glyph>
<glyph name="four" format="1">
  <advance width="534"/>
  <unicode hex="0034"/>
  <outline>
    <contour>
      <point x="512" y="206" type="line"/>
      <point x="395" y="206" type="line"/>
      <point x="395" y="0" type="line"/>
      <point x="373" y="0" type="line"/>
      <point x="373" y="206" type="line"/>
      <point x="23" y="206" type="line"/>
      <point x="23" y="218" type="line"/>
      <point x="383" y="730" type="line"/>
      <point x="395" y="730" type="line"/>
      <point x="395" y="226" type="line"/>
      <point x="512" y="226" type="line"/>
    </contour>
    <contour>
      <point x="373" y="226" type="line"/>
      <point x="373" y="682" type="line"/>
      <point x="53" y="226" type="line"/>
    </contour>
  </outline>
</glyph>
<glyph name="five" format="1">
  <advance width="572"/>
  <unicode hex="0035"/>
  <outline>
    <contour>
      <point x="96" y="398" type="line"/>
      <point x="125" y="445"/>
      <point x="193" y="501"/>
      <point x="281" y="501" type="curve" smooth="yes"/>
      <point x="425" y="501"/>
      <point x="514" y="394"/>
      <point x="514" y="249" type="curve" smooth="yes"/>
      <point x="514" y="115"/>
      <point x="434" y="-12"/>
      <point x="267" y="-12" type="curve" smooth="yes"/>
      <point x="166" y="-12"/>
      <point x="96" y="37"/>
      <point x="48" y="94" type="curve"/>
      <point x="64" y="108" type="line"/>
      <point x="112" y="52"/>
      <point x="178" y="8"/>
      <point x="268" y="8" type="curve" smooth="yes"/>
      <point x="421" y="8"/>
      <point x="492" y="127"/>
      <point x="492" y="249" type="curve" smooth="yes"/>
      <point x="492" y="380"/>
      <point x="411" y="481"/>
      <point x="280" y="481" type="curve" smooth="yes"/>
      <point x="193" y="481"/>
      <point x="133" y="427"/>
      <point x="93" y="363" type="curve"/>
      <point x="74" y="363" type="line"/>
      <point x="96" y="730" type="line"/>
      <point x="463" y="730" type="line"/>
      <point x="463" y="709" type="line"/>
      <point x="115" y="709" type="line"/>
    </contour>
  </outline>
</glyph>
<glyph name="six" format="1">
  <advance width="561"/>
  <unicode hex="0036"/>
  <outline>
    <contour>
      <point x="83" y="365" type="curve"/>
      <point x="125" y="434"/>
      <point x="212" y="480"/>
      <point x="289" y="480" type="curve" smooth="yes"/>
      <point x="426" y="480"/>
      <point x="520" y="383"/>
      <point x="520" y="244" type="curve" smooth="yes"/>
      <point x="520" y="92"/>
      <point x="416" y="-12"/>
      <point x="277" y="-12" type="curve" smooth="yes"/>
      <point x="139" y="-12"/>
      <point x="42" y="79"/>
      <point x="42" y="235" type="curve" smooth="yes"/>
      <point x="42" y="417"/>
      <point x="160" y="600"/>
      <point x="297" y="730" type="curve"/>
      <point x="325" y="730" type="line"/>
      <point x="217" y="628"/>
      <point x="121" y="497"/>
    </contour>
    <contour>
      <point x="64" y="236" type="curve" smooth="yes"/>
      <point x="64" y="93"/>
      <point x="150" y="8"/>
      <point x="277" y="8" type="curve" smooth="yes"/>
      <point x="405" y="8"/>
      <point x="498" y="106"/>
      <point x="498" y="243" type="curve" smooth="yes"/>
      <point x="498" y="369"/>
      <point x="415" y="460"/>
      <point x="289" y="460" type="curve" smooth="yes"/>
      <point x="201" y="460"/>
      <point x="64" y="389"/>
    </contour>
  </outline>
</glyph>
<glyph name="seven" format="1">
  <advance width="500"/>
  <unicode hex="0037"/>
  <outline>
    <contour>
      <point x="466" y="730" type="line"/>
      <point x="101" y="0" type="line"/>
      <point x="77" y="0" type="line"/>
      <point x="434" y="709" type="line"/>
      <point x="43" y="709" type="line"/>
      <point x="43" y="730" type="line"/>
    </contour>
  </outline>
</glyph>
<glyph name="eight" format="1">
  <advance width="597"/>
  <unicode hex="0038"/>
  <outline>
    <contour>
      <point x="216" y="391" type="curve"/>
      <point x="113" y="421"/>
      <point x="80" y="490"/>
      <point x="80" y="549" type="curve" smooth="yes"/>
      <point x="80" y="666"/>
      <point x="168" y="742"/>
      <point x="298" y="742" type="curve" smooth="yes"/>
      <point x="428" y="742"/>
      <point x="517" y="666"/>
      <point x="517" y="553" type="curve" smooth="yes"/>
      <point x="517" y="492"/>
      <point x="485" y="422"/>
      <point x="385" y="392" type="curve"/>
      <point x="508" y="366"/>
      <point x="557" y="291"/>
      <point x="557" y="206" type="curve" smooth="yes"/>
      <point x="557" y="76"/>
      <point x="445" y="-12"/>
      <point x="297" y="-12" type="curve" smooth="yes"/>
      <point x="150" y="-12"/>
      <point x="40" y="73"/>
      <point x="40" y="205" type="curve" smooth="yes"/>
      <point x="40" y="279"/>
      <point x="92" y="363"/>
    </contour>
    <contour>
      <point x="300" y="400" type="curve" smooth="yes"/>
      <point x="446" y="400"/>
      <point x="495" y="483"/>
      <point x="495" y="553" type="curve" smooth="yes"/>
      <point x="495" y="654"/>
      <point x="416" y="722"/>
      <point x="298" y="722" type="curve" smooth="yes"/>
      <point x="180" y="722"/>
      <point x="102" y="654"/>
      <point x="102" y="549" type="curve" smooth="yes"/>
      <point x="102" y="483"/>
      <point x="154" y="400"/>
    </contour>
    <contour>
      <point x="535" y="206" type="curve" smooth="yes"/>
      <point x="535" y="288"/>
      <point x="476" y="380"/>
      <point x="299" y="380" type="curve" smooth="yes"/>
      <point x="119" y="380"/>
      <point x="62" y="271"/>
      <point x="62" y="205" type="curve" smooth="yes"/>
      <point x="62" y="85"/>
      <point x="164" y="8"/>
      <point x="297" y="8" type="curve" smooth="yes"/>
      <point x="431" y="8"/>
      <point x="535" y="88"/>
    </contour>
  </outline>
</glyph>
<glyph name="nine" format="1">
  <advance width="561"/>
  <unicode hex="0039"/>
  <outline>
    <contour>
      <point x="463" y="331" type="curve"/>
      <point x="428" y="277"/>
      <point x="367" y="233"/>
      <point x="265" y="233" type="curve" smooth="yes"/>
      <point x="128" y="233"/>
      <point x="33" y="337"/>
      <point x="33" y="479" type="curve" smooth="yes"/>
      <point x="33" y="635"/>
      <point x="135" y="742"/>
      <point x="273" y="742" type="curve" smooth="yes"/>
      <point x="411" y="742"/>
      <point x="511" y="644"/>
      <point x="511" y="487" type="curve" smooth="yes"/>
      <point x="511" y="285"/>
      <point x="388" y="119"/>
      <point x="255" y="-19" type="curve"/>
      <point x="239" y="-3" type="line"/>
      <point x="328" y="89"/>
      <point x="424" y="207"/>
    </contour>
    <contour>
      <point x="489" y="487" type="curve" smooth="yes"/>
      <point x="489" y="630"/>
      <point x="399" y="722"/>
      <point x="273" y="722" type="curve" smooth="yes"/>
      <point x="147" y="722"/>
      <point x="55" y="621"/>
      <point x="55" y="479" type="curve" smooth="yes"/>
      <point x="55" y="351"/>
      <point x="140" y="253"/>
      <point x="265" y="253" type="curve" smooth="yes"/>
      <point x="415" y="253"/>
      <point x="489" y="354"/>
    </contour>
  </outline>
</glyph>
<glyph name="colon" format="1">
  <advance width="146"/>
  <unicode hex="003A"/>
  <outline>
    <contour>
      <point x="84" y="341" type="line"/>
      <point x="62" y="341" type="line"/>
      <point x="62" y="425" type="line"/>
      <point x="84" y="425" type="line"/>
    </contour>
    <contour>
      <point x="84" y="0" type="line"/>
      <point x="62" y="0" type="line"/>
      <point x="62" y="84" type="line"/>
      <point x="84" y="84" type="line"/>
    </contour>
  </outline>
</glyph>
<glyph name="semicolon" format="1">
  <advance width="146"/>
  <unicode hex="003B"/>
  <outline>
    <contour>
      <point x="84" y="341" type="line"/>
      <point x="62" y="341" type="line"/>
      <point x="62" y="425" type="line"/>
      <point x="84" y="425" type="line"/>
    </contour>
    <contour>
      <point x="84" y="0" type="line" smooth="yes"/>
      <point x="84" y="-67"/>
      <point x="69" y="-114"/>
      <point x="38" y="-148" type="curve"/>
      <point x="23" y="-148" type="line"/>
      <point x="54" y="-103"/>
      <point x="62" y="-61"/>
      <point x="62" y="3" type="curve" smooth="yes"/>
      <point x="62" y="84" type="line"/>
      <point x="84" y="84" type="line"/>
    </contour>
  </outline>
</glyph>
<glyph name="less" format="1">
  <advance width="354"/>
  <unicode hex="003C"/>
  <outline>
    <contour>
      <point x="311" y="102" type="line"/>
      <point x="40" y="318" type="line"/>
      <point x="40" y="331" type="line"/>
      <point x="311" y="545" type="line"/>
      <point x="311" y="521" type="line"/>
      <point x="63" y="325" type="line"/>
      <point x="311" y="128" type="line"/>
    </contour>
  </outline>
</glyph>
<glyph name="equal" format="1">
  <advance width="486"/>
  <unicode hex="003D"/>
  <outline>
    <contour>
      <point x="419" y="398" type="line"/>
      <point x="67" y="398" type="line"/>
      <point x="67" y="418" type="line"/>
      <point x="419" y="418" type="line"/>
    </contour>
    <contour>
      <point x="419" y="248" type="line"/>
      <point x="67" y="248" type="line"/>
      <point x="67" y="268" type="line"/>
      <point x="419" y="268" type="line"/>
    </contour>
  </outline>
</glyph>
<glyph name="greater" format="1">
  <advance width="354"/>
  <unicode hex="003E"/>
  <outline>
    <contour>
      <point x="43" y="545" type="line"/>
      <point x="314" y="329" type="line"/>
      <point x="314" y="316" type="line"/>
      <point x="43" y="102" type="line"/>
      <point x="43" y="126" type="line"/>
      <point x="291" y="322" type="line"/>
      <point x="43" y="519" type="line"/>
    </contour>
  </outline>
</glyph>
<glyph name="question" format="1">
  <advance width="432"/>
  <unicode hex="003F"/>
  <outline>
    <contour>
      <point x="35" y="634" type="line"/>
      <point x="69" y="692"/>
      <point x="130" y="742"/>
      <point x="222" y="742" type="curve" smooth="yes"/>
      <point x="323" y="742"/>
      <point x="383" y="669"/>
      <point x="383" y="574" type="curve" smooth="yes"/>
      <point x="383" y="499"/>
      <point x="342" y="443"/>
      <point x="286" y="369" type="curve" smooth="yes"/>
      <point x="218" y="279"/>
      <point x="206" y="239"/>
      <point x="206" y="173" type="curve" smooth="yes"/>
      <point x="206" y="131" type="line"/>
      <point x="184" y="131" type="line"/>
      <point x="184" y="173" type="line" smooth="yes"/>
      <point x="184" y="243"/>
      <point x="196" y="287"/>
      <point x="268" y="381" type="curve" smooth="yes"/>
      <point x="321" y="450"/>
      <point x="361" y="505"/>
      <point x="361" y="574" type="curve" smooth="yes"/>
      <point x="361" y="657"/>
      <point x="309" y="722"/>
      <point x="222" y="722" type="curve" smooth="yes"/>
      <point x="140" y="722"/>
      <point x="86" y="678"/>
      <point x="54" y="623" type="curve"/>
    </contour>
    <contour>
      <point x="208" y="84" type="line"/>
      <point x="208" y="0" type="line"/>
      <point x="186" y="0" type="line"/>
      <point x="186" y="84" type="line"/>
    </contour>
  </outline>
</glyph>
<glyph name="A" format="1">
  <advance width="620"/>
  <unicode hex="0041"/>
  <outline>
    <contour>
      <point x="161" y="290" type="line"/>
      <point x="54" y="0" type="line"/>
      <point x="32" y="0" type="line"/>
      <point x="307" y="742" type="line"/>
      <point x="322" y="742" type="line"/>
      <point x="588" y="0" type="line"/>
      <point x="565" y="0" type="line"/>
      <point x="462" y="290" type="line"/>
    </contour>
    <contour>
      <point x="454" y="310" type="line"/>
      <point x="314" y="704" type="line"/>
      <point x="168" y="310" type="line"/>
    </contour>
  </outline>
</glyph>
<glyph name="B" format="1">
  <advance width="578"/>
  <unicode hex="0042"/>
  <outline>
    <contour>
      <point x="82" y="0" type="line"/>
      <point x="82" y="730" type="line"/>
      <point x="265" y="730" type="line" smooth="yes"/>
      <point x="391" y="730"/>
      <point x="472" y="674"/>
      <point x="472" y="557" type="curve" smooth="yes"/>
      <point x="472" y="466"/>
      <point x="416" y="400"/>
      <point x="340" y="387" type="curve"/>
      <point x="453" y="379"/>
      <point x="533" y="312"/>
      <point x="533" y="199" type="curve" smooth="yes"/>
      <point x="533" y="64"/>
      <point x="436" y="0"/>
      <point x="302" y="0" type="curve" smooth="yes"/>
    </contour>
    <contour>
      <point x="104" y="394" type="line"/>
      <point x="277" y="394" type="line" smooth="yes"/>
      <point x="366" y="394"/>
      <point x="450" y="440"/>
      <point x="450" y="556" type="curve" smooth="yes"/>
      <point x="450" y="663"/>
      <point x="377" y="710"/>
      <point x="266" y="710" type="curve" smooth="yes"/>
      <point x="104" y="710" type="line"/>
    </contour>
    <contour>
      <point x="104" y="374" type="line"/>
      <point x="104" y="20" type="line"/>
      <point x="303" y="20" type="line" smooth="yes"/>
      <point x="426" y="20"/>
      <point x="511" y="76"/>
      <point x="511" y="198" type="curve" smooth="yes"/>
      <point x="511" y="333"/>
      <point x="404" y="374"/>
      <point x="275" y="374" type="curve" smooth="yes"/>
    </contour>
  </outline>
</glyph>
<glyph name="C" format="1">
  <advance width="707"/>
  <unicode hex="0043"/>
  <outline>
    <contour>
      <point x="663" y="119" type="line"/>
      <point x="600" y="45"/>
      <point x="503" y="-12"/>
      <point x="389" y="-12" type="curve" smooth="yes"/>
      <point x="212" y="-12"/>
      <point x="46" y="145"/>
      <point x="46" y="364" type="curve" smooth="yes"/>
      <point x="46" y="568"/>
      <point x="192" y="742"/>
      <point x="391" y="742" type="curve" smooth="yes"/>
      <point x="512" y="742"/>
      <point x="595" y="690"/>
      <point x="651" y="625" type="curve"/>
      <point x="636" y="612" type="line"/>
      <point x="578" y="675"/>
      <point x="506" y="722"/>
      <point x="391" y="722" type="curve" smooth="yes"/>
      <point x="204" y="722"/>
      <point x="68" y="556"/>
      <point x="68" y="365" type="curve" smooth="yes"/>
      <point x="68" y="159"/>
      <point x="222" y="8"/>
      <point x="389" y="8" type="curve" smooth="yes"/>
      <point x="501" y="8"/>
      <point x="586" y="61"/>
      <point x="648" y="132" type="curve"/>
    </contour>
  </outline>
</glyph>
<glyph name="D" format="1">
  <advance width="636"/>
  <unicode hex="0044"/>
  <outline>
    <contour>
      <point x="589" y="374" type="curve" smooth="yes"/>
      <point x="589" y="120"/>
      <point x="420" y="0"/>
      <point x="206" y="0" type="curve" smooth="yes"/>
      <point x="82" y="0" type="line"/>
      <point x="82" y="730" type="line"/>
      <point x="208" y="730" type="line" smooth="yes"/>
      <point x="424" y="730"/>
      <point x="589" y="617"/>
    </contour>
    <contour>
      <point x="567" y="374" type="curve" smooth="yes"/>
      <point x="567" y="603"/>
      <point x="407" y="710"/>
      <point x="208" y="710" type="curve" smooth="yes"/>
      <point x="104" y="710" type="line"/>
      <point x="104" y="20" type="line"/>
      <point x="208" y="20" type="line" smooth="yes"/>
      <point x="407" y="20"/>
      <point x="567" y="132"/>
    </contour>
  </outline>
</glyph>
<glyph name="E" format="1">
  <advance width="488"/>
  <unicode hex="0045"/>
  <outline>
    <contour>
      <point x="456" y="0" type="line"/>
      <point x="82" y="0" type="line"/>
      <point x="82" y="730" type="line"/>
      <point x="437" y="730" type="line"/>
      <point x="437" y="710" type="line"/>
      <point x="104" y="710" type="line"/>
      <point x="104" y="395" type="line"/>
      <point x="397" y="395" type="line"/>
      <point x="397" y="375" type="line"/>
      <point x="104" y="375" type="line"/>
      <point x="104" y="20" type="line"/>
      <point x="456" y="20" type="line"/>
    </contour>
  </outline>
</glyph>
<glyph name="F" format="1">
  <advance width="441"/>
  <unicode hex="0046"/>
  <outline>
    <contour>
      <point x="399" y="710" type="line"/>
      <point x="102" y="710" type="line"/>
      <point x="102" y="391" type="line"/>
      <point x="372" y="391" type="line"/>
      <point x="372" y="371" type="line"/>
      <point x="102" y="371" type="line"/>
      <point x="102" y="0" type="line"/>
      <point x="80" y="0" type="line"/>
      <point x="80" y="730" type="line"/>
      <point x="399" y="730" type="line"/>
    </contour>
  </outline>
</glyph>
<glyph name="G" format="1">
  <advance width="801"/>
  <unicode hex="0047"/>
  <outline>
    <contour>
      <point x="462" y="274" type="line"/>
      <point x="763" y="274" type="line"/>
      <point x="744" y="104"/>
      <point x="604" y="-12"/>
      <point x="415" y="-12" type="curve" smooth="yes"/>
      <point x="223" y="-12"/>
      <point x="47" y="139"/>
      <point x="47" y="362" type="curve" smooth="yes"/>
      <point x="47" y="578"/>
      <point x="222" y="742"/>
      <point x="416" y="742" type="curve" smooth="yes"/>
      <point x="538" y="742"/>
      <point x="624" y="699"/>
      <point x="689" y="629" type="curve"/>
      <point x="674" y="615" type="line"/>
      <point x="611" y="682"/>
      <point x="529" y="722"/>
      <point x="416" y="722" type="curve" smooth="yes"/>
      <point x="234" y="722"/>
      <point x="69" y="566"/>
      <point x="69" y="363" type="curve" smooth="yes"/>
      <point x="69" y="153"/>
      <point x="235" y="8"/>
      <point x="416" y="8" type="curve" smooth="yes"/>
      <point x="588" y="8"/>
      <point x="714" y="111"/>
      <point x="737" y="254" type="curve"/>
      <point x="462" y="254" type="line"/>
    </contour>
  </outline>
</glyph>
<glyph name="H" format="1">
  <advance width="668"/>
  <unicode hex="0048"/>
  <outline>
    <contour>
      <point x="586" y="0" type="line"/>
      <point x="564" y="0" type="line"/>
      <point x="564" y="379" type="line"/>
      <point x="104" y="379" type="line"/>
      <point x="104" y="0" type="line"/>
      <point x="82" y="0" type="line"/>
      <point x="82" y="730" type="line"/>
      <point x="104" y="730" type="line"/>
      <point x="104" y="399" type="line"/>
      <point x="564" y="399" type="line"/>
      <point x="564" y="730" type="line"/>
      <point x="586" y="730" type="line"/>
    </contour>
  </outline>
</glyph>
<glyph name="I" format="1">
  <advance width="186"/>
  <unicode hex="0049"/>
  <outline>
    <contour>
      <point x="104" y="0" type="line"/>
      <point x="82" y="0" type="line"/>
      <point x="82" y="730" type="line"/>
      <point x="104" y="730" type="line"/>
    </contour>
  </outline>
</glyph>
<glyph name="J" format="1">
  <advance width="333"/>
  <unicode hex="004A"/>
  <outline>
    <contour>
      <point x="256" y="730" type="line"/>
      <point x="256" y="202" type="line" smooth="yes"/>
      <point x="256" y="42"/>
      <point x="188" y="-6"/>
      <point x="69" y="-6" type="curve" smooth="yes"/>
      <point x="28" y="-6" type="line"/>
      <point x="28" y="14" type="line"/>
      <point x="71" y="14" type="line" smooth="yes"/>
      <point x="179" y="14"/>
      <point x="234" y="59"/>
      <point x="234" y="203" type="curve" smooth="yes"/>
      <point x="234" y="730" type="line"/>
    </contour>
  </outline>
</glyph>
<glyph name="K" format="1">
  <advance width="545"/>
  <unicode hex="004B"/>
  <outline>
    <contour>
      <point x="104" y="357" type="line"/>
      <point x="455" y="730" type="line"/>
      <point x="482" y="730" type="line"/>
      <point x="186" y="416" type="line"/>
      <point x="511" y="0" type="line"/>
      <point x="484" y="0" type="line"/>
      <point x="172" y="400" type="line"/>
      <point x="104" y="328" type="line"/>
      <point x="104" y="0" type="line"/>
      <point x="82" y="0" type="line"/>
      <point x="82" y="730" type="line"/>
      <point x="104" y="730" type="line"/>
    </contour>
  </outline>
</glyph>
<glyph name="L" format="1">
  <advance width="479"/>
  <unicode hex="004C"/>
  <outline>
    <contour>
      <point x="451" y="0" type="line"/>
      <point x="80" y="0" type="line"/>
      <point x="80" y="730" type="line"/>
      <point x="102" y="730" type="line"/>
      <point x="102" y="20" type="line"/>
      <point x="451" y="20" type="line"/>
    </contour>
  </outline>
</glyph>
<glyph name="M" format="1">
  <advance width="774"/>
  <unicode hex="004D"/>
  <outline>
    <contour>
      <point x="82" y="0" type="line"/>
      <point x="82" y="730" type="line"/>
      <point x="104" y="730" type="line"/>
      <point x="388" y="332" type="line"/>
      <point x="670" y="730" type="line"/>
      <point x="692" y="730" type="line"/>
      <point x="692" y="0" type="line"/>
      <point x="670" y="0" type="line"/>
      <point x="670" y="693" type="line"/>
      <point x="397" y="309" type="line"/>
      <point x="379" y="309" type="line"/>
      <point x="104" y="693" type="line"/>
      <point x="104" y="0" type="line"/>
    </contour>
  </outline>
</glyph>
<glyph name="N" format="1">
  <advance width="711"/>
  <unicode hex="004E"/>
  <outline>
    <contour>
      <point x="629" y="0" type="line"/>
      <point x="613" y="0" type="line"/>
      <point x="103" y="693" type="line"/>
      <point x="103" y="0" type="line"/>
      <point x="82" y="0" type="line"/>
      <point x="82" y="730" type="line"/>
      <point x="103" y="730" type="line"/>
      <point x="608" y="44" type="line"/>
      <point x="608" y="730" type="line"/>
      <point x="629" y="730" type="line"/>
    </contour>
  </outline>
</glyph>
<glyph name="O" format="1">
  <advance width="800"/>
  <unicode hex="004F"/>
  <outline>
    <contour>
      <point x="755" y="366" type="curve" smooth="yes"/>
      <point x="755" y="158"/>
      <point x="609" y="-12"/>
      <point x="401" y="-12" type="curve" smooth="yes"/>
      <point x="193" y="-12"/>
      <point x="45" y="157"/>
      <point x="45" y="365" type="curve" smooth="yes"/>
      <point x="45" y="573"/>
      <point x="193" y="742"/>
      <point x="401" y="742" type="curve" smooth="yes"/>
      <point x="609" y="742"/>
      <point x="755" y="574"/>
    </contour>
    <contour>
      <point x="733" y="365" type="curve" smooth="yes"/>
      <point x="733" y="560"/>
      <point x="596" y="722"/>
      <point x="401" y="722" type="curve" smooth="yes"/>
      <point x="205" y="722"/>
      <point x="67" y="562"/>
      <point x="67" y="366" type="curve" smooth="yes"/>
      <point x="67" y="170"/>
      <point x="205" y="8"/>
      <point x="401" y="8" type="curve" smooth="yes"/>
      <point x="596" y="8"/>
      <point x="733" y="170"/>
    </contour>
  </outline>
</glyph>
<glyph name="P" format="1">
  <advance width="518"/>
  <unicode hex="0050"/>
  <outline>
    <contour>
      <point x="237" y="730" type="line" smooth="yes"/>
      <point x="395" y="730"/>
      <point x="476" y="654"/>
      <point x="476" y="535" type="curve" smooth="yes"/>
      <point x="476" y="409"/>
      <point x="384" y="328"/>
      <point x="234" y="328" type="curve" smooth="yes"/>
      <point x="104" y="328" type="line"/>
      <point x="104" y="0" type="line"/>
      <point x="82" y="0" type="line"/>
      <point x="82" y="730" type="line"/>
    </contour>
    <contour>
      <point x="104" y="348" type="line"/>
      <point x="236" y="348" type="line" smooth="yes"/>
      <point x="372" y="348"/>
      <point x="454" y="421"/>
      <point x="454" y="534" type="curve" smooth="yes"/>
      <point x="454" y="642"/>
      <point x="381" y="710"/>
      <point x="239" y="710" type="curve" smooth="yes"/>
      <point x="104" y="710" type="line"/>
    </contour>
  </outline>
</glyph>
<glyph name="Q" format="1">
  <advance width="800"/>
  <unicode hex="0051"/>
  <outline>
    <contour>
      <point x="600" y="50" type="curve"/>
      <point x="630" y="26"/>
      <point x="662" y="8"/>
      <point x="692" y="-3" type="curve"/>
      <point x="670" y="-15" type="line"/>
      <point x="645" y="-7"/>
      <point x="614" y="13"/>
      <point x="583" y="38" type="curve"/>
      <point x="531" y="7"/>
      <point x="469" y="-12"/>
      <point x="401" y="-12" type="curve" smooth="yes"/>
      <point x="193" y="-12"/>
      <point x="45" y="157"/>
      <point x="45" y="365" type="curve" smooth="yes"/>
      <point x="45" y="573"/>
      <point x="193" y="742"/>
      <point x="401" y="742" type="curve" smooth="yes"/>
      <point x="609" y="742"/>
      <point x="755" y="574"/>
      <point x="755" y="366" type="curve" smooth="yes"/>
      <point x="755" y="234"/>
      <point x="696" y="117"/>
    </contour>
    <contour>
      <point x="566" y="53" type="curve"/>
      <point x="537" y="80"/>
      <point x="510" y="112"/>
      <point x="492" y="145" type="curve"/>
      <point x="510" y="154" type="line"/>
      <point x="527" y="122"/>
      <point x="553" y="91"/>
      <point x="583" y="64" type="curve"/>
      <point x="676" y="128"/>
      <point x="733" y="240"/>
      <point x="733" y="365" type="curve" smooth="yes"/>
      <point x="733" y="560"/>
      <point x="596" y="722"/>
      <point x="401" y="722" type="curve" smooth="yes"/>
      <point x="205" y="722"/>
      <point x="67" y="562"/>
      <point x="67" y="366" type="curve" smooth="yes"/>
      <point x="67" y="170"/>
      <point x="205" y="8"/>
      <point x="401" y="8" type="curve" smooth="yes"/>
      <point x="463" y="8"/>
      <point x="519" y="24"/>
    </contour>
  </outline>
</glyph>
<glyph name="R" format="1">
  <advance width="537"/>
  <unicode hex="0052"/>
  <outline>
    <contour>
      <point x="82" y="0" type="line"/>
      <point x="82" y="730" type="line"/>
      <point x="244" y="730" type="line" smooth="yes"/>
      <point x="402" y="730"/>
      <point x="483" y="654"/>
      <point x="483" y="535" type="curve" smooth="yes"/>
      <point x="483" y="395"/>
      <point x="378" y="331"/>
      <point x="238" y="331" type="curve" smooth="yes"/>
      <point x="167" y="331" type="line"/>
      <point x="491" y="0" type="line"/>
      <point x="462" y="0" type="line"/>
      <point x="118" y="351" type="line"/>
      <point x="233" y="351" type="line" smooth="yes"/>
      <point x="376" y="351"/>
      <point x="461" y="412"/>
      <point x="461" y="534" type="curve" smooth="yes"/>
      <point x="461" y="642"/>
      <point x="388" y="710"/>
      <point x="246" y="710" type="curve" smooth="yes"/>
      <point x="104" y="710" type="line"/>
      <point x="104" y="0" type="line"/>
    </contour>
  </outline>
</glyph>
<glyph name="S" format="1">
  <advance width="477"/>
  <unicode hex="0053"/>
  <outline>
    <contour>
      <point x="60" y="76" type="line"/>
      <point x="105" y="35"/>
      <point x="174" y="8"/>
      <point x="243" y="8" type="curve" smooth="yes"/>
      <point x="327" y="8"/>
      <point x="411" y="65"/>
      <point x="411" y="166" type="curve" smooth="yes"/>
      <point x="411" y="253"/>
      <point x="361" y="301"/>
      <point x="228" y="371" type="curve" smooth="yes"/>
      <point x="115" y="431"/>
      <point x="56" y="480"/>
      <point x="56" y="580" type="curve" smooth="yes"/>
      <point x="56" y="683"/>
      <point x="141" y="742"/>
      <point x="240" y="742" type="curve" smooth="yes"/>
      <point x="335" y="742"/>
      <point x="386" y="701"/>
      <point x="416" y="663" type="curve"/>
      <point x="399" y="649" type="line"/>
      <point x="364" y="690"/>
      <point x="321" y="722"/>
      <point x="241" y="722" type="curve" smooth="yes"/>
      <point x="153" y="722"/>
      <point x="78" y="672"/>
      <point x="78" y="581" type="curve" smooth="yes"/>
      <point x="78" y="488"/>
      <point x="138" y="443"/>
      <point x="237" y="391" type="curve" smooth="yes"/>
      <point x="373" y="319"/>
      <point x="433" y="268"/>
      <point x="433" y="167" type="curve" smooth="yes"/>
      <point x="433" y="53"/>
      <point x="339" y="-12"/>
      <point x="242" y="-12" type="curve" smooth="yes"/>
      <point x="161" y="-12"/>
      <point x="92" y="17"/>
      <point x="46" y="60" type="curve"/>
    </contour>
  </outline>
</glyph>
<glyph name="T" format="1">
  <advance width="471"/>
  <unicode hex="0054"/>
  <outline>
    <contour>
      <point x="439" y="710" type="line"/>
      <point x="246" y="710" type="line"/>
      <point x="246" y="0" type="line"/>
      <point x="224" y="0" type="line"/>
      <point x="224" y="710" type="line"/>
      <point x="30" y="710" type="line"/>
      <point x="30" y="730" type="line"/>
      <point x="439" y="730" type="line"/>
    </contour>
  </outline>
</glyph>
<glyph name="U" format="1">
  <advance width="666"/>
  <unicode hex="0055"/>
  <outline>
    <contour>
      <point x="589" y="730" type="line"/>
      <point x="589" y="269" type="line" smooth="yes"/>
      <point x="589" y="104"/>
      <point x="477" y="-12"/>
      <point x="331" y="-12" type="curve" smooth="yes"/>
      <point x="190" y="-12"/>
      <point x="77" y="92"/>
      <point x="77" y="262" type="curve" smooth="yes"/>
      <point x="77" y="730" type="line"/>
      <point x="99" y="730" type="line"/>
      <point x="99" y="263" type="line" smooth="yes"/>
      <point x="99" y="106"/>
      <point x="199" y="9"/>
      <point x="332" y="9" type="curve" smooth="yes"/>
      <point x="468" y="9"/>
      <point x="567" y="117"/>
      <point x="567" y="268" type="curve" smooth="yes"/>
      <point x="567" y="730" type="line"/>
    </contour>
  </outline>
</glyph>
<glyph name="V" format="1">
  <advance width="667"/>
  <unicode hex="0056"/>
  <outline>
    <contour>
      <point x="635" y="730" type="line"/>
      <point x="334" y="-24" type="line"/>
      <point x="333" y="-24" type="line"/>
      <point x="32" y="730" type="line"/>
      <point x="55" y="730" type="line"/>
      <point x="334" y="28" type="line"/>
      <point x="613" y="730" type="line"/>
    </contour>
  </outline>
</glyph>
<glyph name="W" format="1">
  <advance width="910"/>
  <unicode hex="0057"/>
  <outline>
    <contour>
      <point x="463" y="743" type="line"/>
      <point x="644" y="46" type="line"/>
      <point x="857" y="730" type="line"/>
      <point x="878" y="730" type="line"/>
      <point x="650" y="0" type="line"/>
      <point x="636" y="0" type="line"/>
      <point x="456" y="695" type="line"/>
      <point x="275" y="0" type="line"/>
      <point x="260" y="0" type="line"/>
      <point x="32" y="730" type="line"/>
      <point x="54" y="730" type="line"/>
      <point x="267" y="46" type="line"/>
      <point x="448" y="743" type="line"/>
    </contour>
  </outline>
</glyph>
<glyph name="X" format="1">
  <advance width="672"/>
  <unicode hex="0058"/>
  <outline>
    <contour>
      <point x="335" y="415" type="line"/>
      <point x="563" y="730" type="line"/>
      <point x="588" y="730" type="line"/>
      <point x="347" y="399" type="line"/>
      <point x="638" y="0" type="line"/>
      <point x="612" y="0" type="line"/>
      <point x="334" y="382" type="line"/>
      <point x="57" y="0" type="line"/>
      <point x="32" y="0" type="line"/>
      <point x="322" y="398" type="line"/>
      <point x="80" y="730" type="line"/>
      <point x="106" y="730" type="line"/>
    </contour>
  </outline>
</glyph>
<glyph name="Y" format="1">
  <advance width="615"/>
  <unicode hex="0059"/>
  <outline>
    <contour>
      <point x="298" y="357" type="line"/>
      <point x="30" y="730" type="line"/>
      <point x="55" y="730" type="line"/>
      <point x="308" y="378" type="line"/>
      <point x="561" y="730" type="line"/>
      <point x="585" y="730" type="line"/>
      <point x="320" y="360" type="line"/>
      <point x="320" y="0" type="line"/>
      <point x="298" y="0" type="line"/>
    </contour>
  </outline>
</glyph>
<glyph name="Z" format="1">
  <advance width="622"/>
  <unicode hex="005A"/>
  <outline>
    <contour>
      <point x="568" y="0" type="line"/>
      <point x="46" y="0" type="line"/>
      <point x="529" y="710" type="line"/>
      <point x="98" y="710" type="line"/>
      <point x="98" y="730" type="line"/>
      <point x="566" y="730" type="line"/>
      <point x="84" y="20" type="line"/>
      <point x="568" y="20" type="line"/>
    </contour>
  </outline>
</glyph>
<glyph name="bracketleft" format="1">
  <advance width="250"/>
  <unicode hex="005B"/>
  <outline>
    <contour>
      <point x="218" y="-179" type="line"/>
      <point x="77" y="-179" type="line"/>
      <point x="77" y="730" type="line"/>
      <point x="218" y="730" type="line"/>
      <point x="218" y="710" type="line"/>
      <point x="99" y="710" type="line"/>
      <point x="99" y="-159" type="line"/>
      <point x="218" y="-159" type="line"/>
    </contour>
  </outline>
</glyph>
<glyph name="backslash" format="1">
  <advance width="351"/>
  <unicode hex="005C"/>
  <outline>
    <contour>
      <point x="309" y="0" type="line"/>
      <point x="289" y="0" type="line"/>
      <point x="42" y="730" type="line"/>
      <point x="62" y="730" type="line"/>
    </contour>
  </outline>
</glyph>
<glyph name="bracketright" format="1">
  <advance width="250"/>
  <unicode hex="005D"/>
  <outline>
    <contour>
      <point x="32" y="730" type="line"/>
      <point x="173" y="730" type="line"/>
      <point x="173" y="-179" type="line"/>
      <point x="32" y="-179" type="line"/>
      <point x="32" y="-159" type="line"/>
      <point x="151" y="-159" type="line"/>
      <point x="151" y="710" type="line"/>
      <point x="32" y="710" type="line"/>
    </contour>
  </outline>
</glyph>
<glyph name="underscore" format="1">
  <advance width="500"/>
  <unicode hex="005F"/>
  <outline>
    <contour>
      <point x="500" y="-93" type="line"/>
      <point x="0" y="-93" type="line"/>
      <point x="0" y="-73" type="line"/>
      <point x="500" y="-73" type="line"/>
    </contour>
  </outline>
</glyph>
<glyph name="a" format="1">
  <advance width="411"/>
  <unicode hex="0061"/>
  <outline>
    <contour>
      <point x="353" y="0" type="line"/>
      <point x="331" y="0" type="line"/>
      <point x="331" y="58" type="line"/>
      <point x="290" y="20"/>
      <point x="242" y="-8"/>
      <point x="171" y="-8" type="curve" smooth="yes"/>
      <point x="100" y="-8"/>
      <point x="37" y="26"/>
      <point x="37" y="109" type="curve" smooth="yes"/>
      <point x="37" y="203"/>
      <point x="118" y="245"/>
      <point x="235" y="245" type="curve" smooth="yes"/>
      <point x="331" y="245" type="line"/>
      <point x="331" y="287" type="line" smooth="yes"/>
      <point x="331" y="355"/>
      <point x="291" y="389"/>
      <point x="216" y="389" type="curve" smooth="yes"/>
      <point x="158" y="389"/>
      <point x="119" y="375"/>
      <point x="84" y="357" type="curve"/>
      <point x="75" y="376" type="line"/>
      <point x="115" y="396"/>
      <point x="155" y="409"/>
      <point x="217" y="409" type="curve" smooth="yes"/>
      <point x="308" y="409"/>
      <point x="353" y="365"/>
      <point x="353" y="288" type="curve" smooth="yes"/>
    </contour>
    <contour>
      <point x="331" y="82" type="curve"/>
      <point x="331" y="225" type="line"/>
      <point x="235" y="225" type="line" smooth="yes"/>
      <point x="132" y="225"/>
      <point x="59" y="191"/>
      <point x="59" y="110" type="curve" smooth="yes"/>
      <point x="59" y="42"/>
      <point x="110" y="12"/>
      <point x="172" y="12" type="curve" smooth="yes"/>
      <point x="234" y="12"/>
      <point x="286" y="39"/>
    </contour>
  </outline>
</glyph>
<glyph name="c" format="1">
  <advance width="436"/>
  <unicode hex="0063"/>
  <outline>
    <contour>
      <point x="402" y="87" type="line"/>
      <point x="366" y="29"/>
      <point x="313" y="-12"/>
      <point x="230" y="-12" type="curve" smooth="yes"/>
      <point x="122" y="-12"/>
      <point x="37" y="78"/>
      <point x="37" y="199" type="curve" smooth="yes"/>
      <point x="37" y="320"/>
      <point x="121" y="413"/>
      <point x="235" y="413" type="curve" smooth="yes"/>
      <point x="320" y="413"/>
      <point x="369" y="375"/>
      <point x="399" y="331" type="curve"/>
      <point x="381" y="317" type="line"/>
      <point x="353" y="357"/>
      <point x="312" y="393"/>
      <point x="235" y="393" type="curve" smooth="yes"/>
      <point x="133" y="393"/>
      <point x="59" y="308"/>
      <point x="59" y="199" type="curve" smooth="yes"/>
      <point x="59" y="92"/>
      <point x="134" y="8"/>
      <point x="230" y="8" type="curve" smooth="yes"/>
      <point x="305" y="8"/>
      <point x="352" y="47"/>
      <point x="384" y="99" type="curve"/>
    </contour>
  </outline>
</glyph>
<glyph name="d" format="1">
  <advance width="483"/>
  <unicode hex="0064"/>
  <outline>
    <contour>
      <point x="37" y="200" type="curve" smooth="yes"/>
      <point x="37" y="315"/>
      <point x="114" y="413"/>
      <point x="232" y="413" type="curve" smooth="yes"/>
      <point x="319" y="413"/>
      <point x="383" y="340"/>
      <point x="399" y="284" type="curve"/>
      <point x="399" y="740" type="line"/>
      <point x="421" y="740" type="line"/>
      <point x="421" y="0" type="line"/>
      <point x="399" y="0" type="line"/>
      <point x="399" y="117" type="line"/>
      <point x="378" y="58"/>
      <point x="320" y="-12"/>
      <point x="232" y="-12" type="curve" smooth="yes"/>
      <point x="113" y="-12"/>
      <point x="37" y="85"/>
    </contour>
    <contour>
      <point x="59" y="201" type="curve" smooth="yes"/>
      <point x="59" y="99"/>
      <point x="125" y="8"/>
      <point x="234" y="8" type="curve" smooth="yes"/>
      <point x="319" y="8"/>
      <point x="399" y="95"/>
      <point x="399" y="201" type="curve" smooth="yes"/>
      <point x="399" y="306"/>
      <point x="319" y="393"/>
      <point x="233" y="393" type="curve" smooth="yes"/>
      <point x="125" y="393"/>
      <point x="59" y="302"/>
    </contour>
  </outline>
</glyph>
<glyph name="e" format="1">
  <advance width="450"/>
  <unicode hex="0065"/>
  <outline>
    <contour>
      <point x="59" y="207" type="line"/>
      <point x="59" y="204"/>
      <point x="59" y="202"/>
      <point x="59" y="199" type="curve" smooth="yes"/>
      <point x="59" y="91"/>
      <point x="132" y="8"/>
      <point x="235" y="8" type="curve" smooth="yes"/>
      <point x="311" y="8"/>
      <point x="355" y="37"/>
      <point x="393" y="76" type="curve"/>
      <point x="408" y="61" type="line"/>
      <point x="365" y="17"/>
      <point x="316" y="-12"/>
      <point x="235" y="-12" type="curve" smooth="yes"/>
      <point x="120" y="-12"/>
      <point x="37" y="79"/>
      <point x="37" y="199" type="curve" smooth="yes"/>
      <point x="37" y="320"/>
      <point x="120" y="413"/>
      <point x="229" y="413" type="curve" smooth="yes"/>
      <point x="352" y="413"/>
      <point x="412" y="314"/>
      <point x="419" y="207" type="curve"/>
    </contour>
    <contour>
      <point x="61" y="227" type="curve"/>
      <point x="394" y="227" type="line"/>
      <point x="383" y="311"/>
      <point x="333" y="393"/>
      <point x="229" y="393" type="curve" smooth="yes"/>
      <point x="140" y="393"/>
      <point x="72" y="321"/>
    </contour>
  </outline>
</glyph>
<glyph name="f" format="1">
  <advance width="203"/>
  <unicode hex="0066"/>
  <outline>
    <contour>
      <point x="197" y="720" type="line"/>
      <point x="167" y="720" type="line" smooth="yes"/>
      <point x="111" y="720"/>
      <point x="99" y="697"/>
      <point x="99" y="648" type="curve" smooth="yes"/>
      <point x="99" y="401" type="line"/>
      <point x="192" y="401" type="line"/>
      <point x="192" y="381" type="line"/>
      <point x="99" y="381" type="line"/>
      <point x="99" y="0" type="line"/>
      <point x="77" y="0" type="line"/>
      <point x="77" y="381" type="line"/>
      <point x="7" y="381" type="line"/>
      <point x="7" y="401" type="line"/>
      <point x="77" y="401" type="line"/>
      <point x="77" y="647" type="line" smooth="yes"/>
      <point x="77" y="714"/>
      <point x="105" y="740"/>
      <point x="168" y="740" type="curve" smooth="yes"/>
      <point x="197" y="740" type="line"/>
    </contour>
  </outline>
</glyph>
<glyph name="g" format="1">
  <advance width="486"/>
  <unicode hex="0067"/>
  <outline>
    <contour>
      <point x="399" y="117" type="line"/>
      <point x="378" y="58"/>
      <point x="320" y="-12"/>
      <point x="232" y="-12" type="curve" smooth="yes"/>
      <point x="113" y="-12"/>
      <point x="37" y="85"/>
      <point x="37" y="200" type="curve" smooth="yes"/>
      <point x="37" y="315"/>
      <point x="114" y="413"/>
      <point x="232" y="413" type="curve" smooth="yes"/>
      <point x="319" y="413"/>
      <point x="383" y="340"/>
      <point x="399" y="284" type="curve"/>
      <point x="399" y="401" type="line"/>
      <point x="421" y="401" type="line"/>
      <point x="421" y="12" type="line" smooth="yes"/>
      <point x="421" y="-130"/>
      <point x="350" y="-191"/>
      <point x="231" y="-191" type="curve" smooth="yes"/>
      <point x="163" y="-191"/>
      <point x="97" y="-164"/>
      <point x="55" y="-125" type="curve"/>
      <point x="69" y="-109" type="line"/>
      <point x="108" y="-145"/>
      <point x="167" y="-171"/>
      <point x="232" y="-171" type="curve" smooth="yes"/>
      <point x="342" y="-171"/>
      <point x="399" y="-117"/>
      <point x="399" y="19" type="curve" smooth="yes"/>
    </contour>
    <contour>
      <point x="399" y="201" type="curve" smooth="yes"/>
      <point x="399" y="306"/>
      <point x="319" y="393"/>
      <point x="233" y="393" type="curve" smooth="yes"/>
      <point x="125" y="393"/>
      <point x="59" y="302"/>
      <point x="59" y="201" type="curve" smooth="yes"/>
      <point x="59" y="99"/>
      <point x="125" y="8"/>
      <point x="234" y="8" type="curve" smooth="yes"/>
      <point x="319" y="8"/>
      <point x="399" y="95"/>
    </contour>
  </outline>
</glyph>
<glyph name="i" format="1">
  <advance width="146"/>
  <unicode hex="0069"/>
  <outline>
    <contour>
      <point x="84" y="513" type="line"/>
      <point x="62" y="513" type="line"/>
      <point x="62" y="593" type="line"/>
      <point x="84" y="593" type="line"/>
    </contour>
    <contour>
      <point x="84" y="0" type="line"/>
      <point x="62" y="0" type="line"/>
      <point x="62" y="401" type="line"/>
      <point x="84" y="401" type="line"/>
    </contour>
  </outline>
</glyph>
<glyph name="j" format="1">
  <advance width="146"/>
  <unicode hex="006A"/>
  <outline>
    <contour>
      <point x="84" y="513" type="line"/>
      <point x="62" y="513" type="line"/>
      <point x="62" y="593" type="line"/>
      <point x="84" y="593" type="line"/>
    </contour>
    <contour>
      <point x="84" y="-131" type="line" smooth="yes"/>
      <point x="84" y="-173"/>
      <point x="64" y="-188"/>
      <point x="27" y="-188" type="curve" smooth="yes"/>
      <point x="12" y="-188"/>
      <point x="2" y="-186"/>
      <point x="-7" y="-183" type="curve"/>
      <point x="-12" y="-163" type="line"/>
      <point x="-2" y="-167"/>
      <point x="12" y="-168"/>
      <point x="26" y="-168" type="curve" smooth="yes"/>
      <point x="50" y="-168"/>
      <point x="62" y="-163"/>
      <point x="62" y="-129" type="curve" smooth="yes"/>
      <point x="62" y="401" type="line"/>
      <point x="84" y="401" type="line"/>
    </contour>
  </outline>
</glyph>
<glyph name="k" format="1">
  <advance width="389"/>
  <unicode hex="006B"/>
  <outline>
    <contour>
      <point x="84" y="154" type="line"/>
      <point x="84" y="0" type="line"/>
      <point x="62" y="0" type="line"/>
      <point x="62" y="740" type="line"/>
      <point x="84" y="740" type="line"/>
      <point x="84" y="179" type="line"/>
      <point x="323" y="401" type="line"/>
      <point x="350" y="401" type="line"/>
      <point x="164" y="228" type="line"/>
      <point x="373" y="0" type="line"/>
      <point x="345" y="0" type="line"/>
      <point x="149" y="214" type="line"/>
    </contour>
  </outline>
</glyph>
<glyph name="l" format="1">
  <advance width="146"/>
  <unicode hex="006C"/>
  <outline>
    <contour>
      <point x="84" y="0" type="line"/>
      <point x="62" y="0" type="line"/>
      <point x="62" y="740" type="line"/>
      <point x="84" y="740" type="line"/>
    </contour>
  </outline>
</glyph>
<glyph name="m" format="1">
  <advance width="687"/>
  <unicode hex="006D"/>
  <outline>
    <contour>
      <point x="357" y="0" type="line"/>
      <point x="335" y="0" type="line"/>
      <point x="335" y="249" type="line" smooth="yes"/>
      <point x="335" y="331"/>
      <point x="299" y="393"/>
      <point x="223" y="393" type="curve" smooth="yes"/>
      <point x="147" y="393"/>
      <point x="84" y="316"/>
      <point x="84" y="233" type="curve" smooth="yes"/>
      <point x="84" y="0" type="line"/>
      <point x="62" y="0" type="line"/>
      <point x="62" y="401" type="line"/>
      <point x="84" y="401" type="line"/>
      <point x="84" y="309" type="line"/>
      <point x="108" y="364"/>
      <point x="153" y="413"/>
      <point x="225" y="413" type="curve" smooth="yes"/>
      <point x="297" y="413"/>
      <point x="338" y="369"/>
      <point x="352" y="300" type="curve"/>
      <point x="368" y="343"/>
      <point x="415" y="413"/>
      <point x="498" y="413" type="curve" smooth="yes"/>
      <point x="587" y="413"/>
      <point x="630" y="344"/>
      <point x="630" y="250" type="curve" smooth="yes"/>
      <point x="630" y="0" type="line"/>
      <point x="608" y="0" type="line"/>
      <point x="608" y="249" type="line" smooth="yes"/>
      <point x="608" y="331"/>
      <point x="572" y="393"/>
      <point x="496" y="393" type="curve" smooth="yes"/>
      <point x="420" y="393"/>
      <point x="357" y="316"/>
      <point x="357" y="233" type="curve" smooth="yes"/>
    </contour>
  </outline>
</glyph>
<glyph name="n" format="1">
  <advance width="430"/>
  <unicode hex="006E"/>
  <outline>
    <contour>
      <point x="373" y="0" type="line"/>
      <point x="351" y="0" type="line"/>
      <point x="351" y="249" type="line" smooth="yes"/>
      <point x="351" y="331"/>
      <point x="315" y="393"/>
      <point x="231" y="393" type="curve" smooth="yes"/>
      <point x="147" y="393"/>
      <point x="84" y="316"/>
      <point x="84" y="233" type="curve" smooth="yes"/>
      <point x="84" y="0" type="line"/>
      <point x="62" y="0" type="line"/>
      <point x="62" y="401" type="line"/>
      <point x="84" y="401" type="line"/>
      <point x="84" y="309" type="line"/>
      <point x="108" y="364"/>
      <point x="155" y="413"/>
      <point x="233" y="413" type="curve" smooth="yes"/>
      <point x="328" y="413"/>
      <point x="373" y="344"/>
      <point x="373" y="250" type="curve" smooth="yes"/>
    </contour>
  </outline>
</glyph>
<glyph name="o" format="1">
  <advance width="486"/>
  <unicode hex="006F"/>
  <outline>
    <contour>
      <point x="449" y="200" type="curve" smooth="yes"/>
      <point x="449" y="83"/>
      <point x="360" y="-12"/>
      <point x="243" y="-12" type="curve" smooth="yes"/>
      <point x="126" y="-12"/>
      <point x="37" y="83"/>
      <point x="37" y="200" type="curve" smooth="yes"/>
      <point x="37" y="317"/>
      <point x="126" y="413"/>
      <point x="243" y="413" type="curve" smooth="yes"/>
      <point x="360" y="413"/>
      <point x="449" y="317"/>
    </contour>
    <contour>
      <point x="427" y="200" type="curve" smooth="yes"/>
      <point x="427" y="305"/>
      <point x="348" y="393"/>
      <point x="243" y="393" type="curve" smooth="yes"/>
      <point x="138" y="393"/>
      <point x="59" y="305"/>
      <point x="59" y="200" type="curve" smooth="yes"/>
      <point x="59" y="95"/>
      <point x="138" y="8"/>
      <point x="243" y="8" type="curve" smooth="yes"/>
      <point x="348" y="8"/>
      <point x="427" y="95"/>
    </contour>
  </outline>
</glyph>
<glyph name="r" format="1">
  <advance width="281"/>
  <unicode hex="0072"/>
  <outline>
    <contour>
      <point x="273" y="383" type="curve"/>
      <point x="259" y="366" type="line"/>
      <point x="240" y="382"/>
      <point x="219" y="393"/>
      <point x="192" y="393" type="curve" smooth="yes"/>
      <point x="136" y="393"/>
      <point x="84" y="317"/>
      <point x="84" y="226" type="curve" smooth="yes"/>
      <point x="84" y="0" type="line"/>
      <point x="62" y="0" type="line"/>
      <point x="62" y="401" type="line"/>
      <point x="84" y="401" type="line"/>
      <point x="84" y="314" type="line"/>
      <point x="94" y="356"/>
      <point x="137" y="413"/>
      <point x="195" y="413" type="curve" smooth="yes"/>
      <point x="229" y="413"/>
      <point x="253" y="400"/>
    </contour>
  </outline>
</glyph>
<glyph name="s" format="1">
  <advance width="334"/>
  <unicode hex="0073"/>
  <outline>
    <contour>
      <point x="40" y="51" type="line"/>
      <point x="75" y="24"/>
      <point x="122" y="8"/>
      <point x="170" y="8" type="curve" smooth="yes"/>
      <point x="238" y="8"/>
      <point x="283" y="43"/>
      <point x="283" y="97" type="curve" smooth="yes"/>
      <point x="283" y="141"/>
      <point x="258" y="173"/>
      <point x="171" y="199" type="curve" smooth="yes"/>
      <point x="85" y="225"/>
      <point x="37" y="246"/>
      <point x="37" y="314" type="curve" smooth="yes"/>
      <point x="37" y="375"/>
      <point x="92" y="413"/>
      <point x="170" y="413" type="curve" smooth="yes"/>
      <point x="220" y="413"/>
      <point x="270" y="394"/>
      <point x="297" y="368" type="curve"/>
      <point x="282" y="352" type="line"/>
      <point x="258" y="375"/>
      <point x="214" y="393"/>
      <point x="170" y="393" type="curve" smooth="yes"/>
      <point x="106" y="393"/>
      <point x="59" y="363"/>
      <point x="59" y="314" type="curve" smooth="yes"/>
      <point x="59" y="256"/>
      <point x="110" y="239"/>
      <point x="175" y="220" type="curve" smooth="yes"/>
      <point x="278" y="190"/>
      <point x="305" y="150"/>
      <point x="305" y="97" type="curve" smooth="yes"/>
      <point x="305" y="31"/>
      <point x="252" y="-12"/>
      <point x="170" y="-12" type="curve" smooth="yes"/>
      <point x="116" y="-12"/>
      <point x="66" y="4"/>
      <point x="27" y="33" type="curve"/>
    </contour>
  </outline>
</glyph>
<glyph name="t" format="1">
  <advance width="226"/>
  <unicode hex="0074"/>
  <outline>
    <contour>
      <point x="192" y="0" type="line"/>
      <point x="163" y="0" type="line" smooth="yes"/>
      <point x="105" y="0"/>
      <point x="73" y="26"/>
      <point x="73" y="86" type="curve" smooth="yes"/>
      <point x="73" y="381" type="line"/>
      <point x="10" y="381" type="line"/>
      <point x="10" y="401" type="line"/>
      <point x="73" y="401" type="line"/>
      <point x="73" y="589" type="line"/>
      <point x="95" y="589" type="line"/>
      <point x="95" y="401" type="line"/>
      <point x="191" y="401" type="line"/>
      <point x="191" y="381" type="line"/>
      <point x="95" y="381" type="line"/>
      <point x="95" y="88" type="line" smooth="yes"/>
      <point x="95" y="52"/>
      <point x="102" y="20"/>
      <point x="167" y="20" type="curve" smooth="yes"/>
      <point x="192" y="20" type="line"/>
    </contour>
  </outline>
</glyph>
<glyph name="u" format="1">
  <advance width="430"/>
  <unicode hex="0075"/>
  <outline>
    <contour>
      <point x="57" y="401" type="line"/>
      <point x="79" y="401" type="line"/>
      <point x="79" y="152" type="line" smooth="yes"/>
      <point x="79" y="70"/>
      <point x="115" y="8"/>
      <point x="199" y="8" type="curve" smooth="yes"/>
      <point x="283" y="8"/>
      <point x="346" y="85"/>
      <point x="346" y="168" type="curve" smooth="yes"/>
      <point x="346" y="401" type="line"/>
      <point x="368" y="401" type="line"/>
      <point x="368" y="0" type="line"/>
      <point x="346" y="0" type="line"/>
      <point x="346" y="92" type="line"/>
      <point x="322" y="37"/>
      <point x="275" y="-12"/>
      <point x="197" y="-12" type="curve" smooth="yes"/>
      <point x="102" y="-12"/>
      <point x="57" y="57"/>
      <point x="57" y="151" type="curve" smooth="yes"/>
    </contour>
  </outline>
</glyph>
<glyph name="v" format="1">
  <advance width="409"/>
  <unicode hex="0076"/>
  <outline>
    <contour>
      <point x="384" y="401" type="line"/>
      <point x="205" y="-24" type="line"/>
      <point x="204" y="-24" type="line"/>
      <point x="25" y="401" type="line"/>
      <point x="48" y="401" type="line"/>
      <point x="205" y="25" type="line"/>
      <point x="362" y="401" type="line"/>
    </contour>
  </outline>
</glyph>
<glyph name="w" format="1">
  <advance width="634"/>
  <unicode hex="0077"/>
  <outline>
    <contour>
      <point x="318" y="416" type="line"/>
      <point x="444" y="36" type="line"/>
      <point x="587" y="401" type="line"/>
      <point x="609" y="401" type="line"/>
      <point x="443" y="-23" type="line"/>
      <point x="317" y="359" type="line"/>
      <point x="191" y="-23" type="line"/>
      <point x="25" y="401" type="line"/>
      <point x="48" y="401" type="line"/>
      <point x="191" y="35" type="line"/>
    </contour>
  </outline>
</glyph>
<glyph name="x" format="1">
  <advance width="385"/>
  <unicode hex="0078"/>
  <outline>
    <contour>
      <point x="192" y="232" type="line"/>
      <point x="316" y="401" type="line"/>
      <point x="340" y="401" type="line"/>
      <point x="204" y="217" type="line"/>
      <point x="365" y="0" type="line"/>
      <point x="341" y="0" type="line"/>
      <point x="192" y="201" type="line"/>
      <point x="44" y="0" type="line"/>
      <point x="20" y="0" type="line"/>
      <point x="180" y="217" type="line"/>
      <point x="44" y="401" type="line"/>
      <point x="68" y="401" type="line"/>
    </contour>
  </outline>
</glyph>
<glyph name="y" format="1">
  <advance width="396"/>
  <unicode hex="0079"/>
  <outline>
    <contour>
      <point x="181" y="1" type="line"/>
      <point x="17" y="401" type="line"/>
      <point x="40" y="401" type="line"/>
      <point x="193" y="28" type="line"/>
      <point x="347" y="401" type="line"/>
      <point x="369" y="401" type="line"/>
      <point x="158" y="-109" type="line" smooth="yes"/>
      <point x="138" y="-158"/>
      <point x="117" y="-189"/>
      <point x="73" y="-189" type="curve" smooth="yes"/>
      <point x="49" y="-189"/>
      <point x="33" y="-182"/>
      <point x="22" y="-176" type="curve"/>
      <point x="22" y="-154" type="line"/>
      <point x="34" y="-161"/>
      <point x="51" y="-169"/>
      <point x="71" y="-169" type="curve" smooth="yes"/>
      <point x="107" y="-169"/>
      <point x="119" y="-149"/>
      <point x="139" y="-101" type="curve" smooth="yes"/>
    </contour>
  </outline>
</glyph>
<glyph name="z" format="1">
  <advance width="399"/>
  <unicode hex="007A"/>
  <outline>
    <contour>
      <point x="371" y="401" type="line"/>
      <point x="63" y="20" type="line"/>
      <point x="353" y="20" type="line"/>
      <point x="353" y="0" type="line"/>
      <point x="21" y="0" type="line"/>
      <point x="329" y="381" type="line"/>
      <point x="59" y="381" type="line"/>
      <point x="59" y="401" type="line"/>
    </contour>
  </outline>
</glyph>
<glyph name="braceleft" format="1">
  <advance width="260"/>
  <unicode hex="007B"/>
  <outline>
    <contour>
      <point x="25" y="296" type="line"/>
      <point x="114" y="296"/>
      <point x="118" y="361"/>
      <point x="118" y="482" type="curve" smooth="yes"/>
      <point x="118" y="655"/>
      <point x="135" y="699"/>
      <point x="241" y="749" type="curve"/>
      <point x="241" y="729" type="line"/>
      <point x="151" y="682"/>
      <point x="140" y="642"/>
      <point x="140" y="496" type="curve" smooth="yes"/>
      <point x="140" y="365"/>
      <point x="134" y="310"/>
      <point x="68" y="285" type="curve"/>
      <point x="134" y="261"/>
      <point x="140" y="206"/>
      <point x="140" y="75" type="curve" smooth="yes"/>
      <point x="140" y="-71"/>
      <point x="151" y="-111"/>
      <point x="241" y="-158" type="curve"/>
      <point x="241" y="-178" type="line"/>
      <point x="135" y="-127"/>
      <point x="118" y="-84"/>
      <point x="118" y="89" type="curve" smooth="yes"/>
      <point x="118" y="210"/>
      <point x="113" y="276"/>
      <point x="25" y="276" type="curve"/>
    </contour>
  </outline>
</glyph>
<glyph name="braceright" format="1">
  <advance width="260"/>
  <unicode hex="007D"/>
  <outline>
    <contour>
      <point x="235" y="275" type="line"/>
      <point x="146" y="275"/>
      <point x="142" y="210"/>
      <point x="142" y="89" type="curve" smooth="yes"/>
      <point x="142" y="-84"/>
      <point x="125" y="-128"/>
      <point x="19" y="-178" type="curve"/>
      <point x="19" y="-158" type="line"/>
      <point x="109" y="-111"/>
      <point x="120" y="-71"/>
      <point x="120" y="75" type="curve" smooth="yes"/>
      <point x="120" y="206"/>
      <point x="126" y="261"/>
      <point x="192" y="286" type="curve"/>
      <point x="126" y="310"/>
      <point x="120" y="365"/>
      <point x="120" y="496" type="curve" smooth="yes"/>
      <point x="120" y="642"/>
      <point x="109" y="682"/>
      <point x="19" y="729" type="curve"/>
      <point x="19" y="749" type="line"/>
      <point x="125" y="698"/>
      <point x="142" y="655"/>
      <point x="142" y="482" type="curve" smooth="yes"/>
      <point x="142" y="361"/>
      <point x="147" y="295"/>
      <point x="235" y="295" type="curve"/>
    </contour>
  </outline>
</glyph>
<glyph name="asciitilde" format="1">
  <advance width="444"/>
  <unicode hex="007E"/>
  <outline>
    <contour>
      <point x="371" y="422" type="line"/>
      <point x="366" y="334"/>
      <point x="326" y="308"/>
      <point x="297" y="308" type="curve" smooth="yes"/>
      <point x="262" y="308"/>
      <point x="238" y="331"/>
      <point x="208" y="358" type="curve" smooth="yes"/>
      <point x="189" y="375"/>
      <point x="163" y="405"/>
      <point x="132" y="405" type="curve" smooth="yes"/>
      <point x="88" y="405"/>
      <point x="74" y="363"/>
      <point x="71" y="315" type="curve"/>
      <point x="51" y="315" type="line"/>
      <point x="55" y="376"/>
      <point x="77" y="425"/>
      <point x="132" y="425" type="curve" smooth="yes"/>
      <point x="169" y="425"/>
      <point x="200" y="393"/>
      <point x="222" y="373" type="curve" smooth="yes"/>
      <point x="247" y="350"/>
      <point x="268" y="328"/>
      <point x="297" y="328" type="curve" smooth="yes"/>
      <point x="320" y="328"/>
      <point x="346" y="351"/>
      <point x="351" y="422" type="curve"/>
    </contour>
  </outline>
</glyph>
<glyph name="exclamdown" format="1">
  <advance width="170"/>
  <unicode hex="00A1"/>
  <outline>
    <contour>
      <point x="74" y="730" type="line"/>
      <point x="96" y="730" type="line"/>
      <point x="96" y="646" type="line"/>
      <point x="74" y="646" type="line"/>
    </contour>
    <contour>
      <point x="74" y="430" type="line"/>
      <point x="77" y="601" type="line"/>
      <point x="93" y="601" type="line"/>
      <point x="96" y="430" type="line"/>
      <point x="96" y="0" type="line"/>
      <point x="74" y="0" type="line"/>
    </contour>
  </outline>
</glyph>
<glyph name="cent" format="1">
  <advance width="441"/>
  <unicode hex="00A2"/>
  <outline>
    <contour>
      <point x="242" y="-12" type="curve"/>
      <point x="242" y="-89" type="line"/>
      <point x="220" y="-89" type="line"/>
      <point x="220" y="-12" type="line"/>
      <point x="117" y="-6"/>
      <point x="37" y="82"/>
      <point x="37" y="199" type="curve" smooth="yes"/>
      <point x="37" y="315"/>
      <point x="114" y="405"/>
      <point x="220" y="412" type="curve"/>
      <point x="220" y="485" type="line"/>
      <point x="242" y="485" type="line"/>
      <point x="242" y="413" type="line"/>
      <point x="323" y="411"/>
      <point x="370" y="374"/>
      <point x="399" y="331" type="curve"/>
      <point x="381" y="317" type="line"/>
      <point x="354" y="356"/>
      <point x="314" y="391"/>
      <point x="242" y="393" type="curve"/>
      <point x="242" y="8" type="line"/>
      <point x="310" y="12"/>
      <point x="354" y="50"/>
      <point x="384" y="99" type="curve"/>
      <point x="402" y="87" type="line"/>
      <point x="368" y="32"/>
      <point x="318" y="-8"/>
    </contour>
    <contour>
      <point x="220" y="8" type="curve"/>
      <point x="220" y="392" type="line"/>
      <point x="126" y="385"/>
      <point x="59" y="303"/>
      <point x="59" y="199" type="curve" smooth="yes"/>
      <point x="59" y="96"/>
      <point x="129" y="14"/>
    </contour>
  </outline>
</glyph>
<glyph name="sterling" format="1">
  <advance width="519"/>
  <unicode hex="00A3"/>
  <outline>
    <contour>
      <point x="177" y="341" type="curve"/>
      <point x="86" y="341" type="line"/>
      <point x="86" y="361" type="line"/>
      <point x="161" y="361" type="line"/>
      <point x="106" y="433"/>
      <point x="75" y="488"/>
      <point x="75" y="564" type="curve" smooth="yes"/>
      <point x="75" y="673"/>
      <point x="158" y="742"/>
      <point x="273" y="742" type="curve" smooth="yes"/>
      <point x="387" y="742"/>
      <point x="448" y="672"/>
      <point x="462" y="570" type="curve"/>
      <point x="440" y="570" type="line"/>
      <point x="428" y="658"/>
      <point x="373" y="722"/>
      <point x="273" y="722" type="curve" smooth="yes"/>
      <point x="170" y="722"/>
      <point x="97" y="661"/>
      <point x="97" y="565" type="curve" smooth="yes"/>
      <point x="97" y="494"/>
      <point x="129" y="438"/>
      <point x="183" y="369" type="curve" smooth="yes"/>
      <point x="185" y="366"/>
      <point x="187" y="364"/>
      <point x="189" y="361" type="curve"/>
      <point x="385" y="361" type="line"/>
      <point x="385" y="341" type="line"/>
      <point x="204" y="341" type="line"/>
      <point x="227" y="307"/>
      <point x="246" y="276"/>
      <point x="257" y="245" type="curve"/>
      <point x="385" y="245" type="line"/>
      <point x="385" y="225" type="line"/>
      <point x="264" y="225" type="line"/>
      <point x="268" y="209"/>
      <point x="271" y="192"/>
      <point x="271" y="176" type="curve" smooth="yes"/>
      <point x="271" y="142"/>
      <point x="265" y="112"/>
      <point x="254" y="85" type="curve"/>
      <point x="261" y="80"/>
      <point x="268" y="74"/>
      <point x="274" y="69" type="curve" smooth="yes"/>
      <point x="309" y="39"/>
      <point x="346" y="8"/>
      <point x="388" y="8" type="curve" smooth="yes"/>
      <point x="451" y="8"/>
      <point x="460" y="56"/>
      <point x="462" y="137" type="curve"/>
      <point x="484" y="137" type="line"/>
      <point x="482" y="40"/>
      <point x="463" y="-12"/>
      <point x="388" y="-12" type="curve" smooth="yes"/>
      <point x="340" y="-12"/>
      <point x="300" y="19"/>
      <point x="261" y="53" type="curve" smooth="yes"/>
      <point x="256" y="57"/>
      <point x="251" y="62"/>
      <point x="246" y="66" type="curve"/>
      <point x="221" y="17"/>
      <point x="180" y="-12"/>
      <point x="137" y="-12" type="curve" smooth="yes"/>
      <point x="83" y="-12"/>
      <point x="44" y="17"/>
      <point x="44" y="64" type="curve" smooth="yes"/>
      <point x="44" y="109"/>
      <point x="76" y="141"/>
      <point x="134" y="141" type="curve" smooth="yes"/>
      <point x="171" y="141"/>
      <point x="205" y="123"/>
      <point x="237" y="99" type="curve"/>
      <point x="245" y="122"/>
      <point x="249" y="149"/>
      <point x="249" y="177" type="curve" smooth="yes"/>
      <point x="249" y="193"/>
      <point x="246" y="209"/>
      <point x="241" y="225" type="curve"/>
      <point x="86" y="225" type="line"/>
      <point x="86" y="245" type="line"/>
      <point x="234" y="245" type="line"/>
      <point x="222" y="276"/>
      <point x="202" y="307"/>
    </contour>
    <contour>
      <point x="229" y="79" type="curve"/>
      <point x="199" y="102"/>
      <point x="167" y="121"/>
      <point x="134" y="121" type="curve" smooth="yes"/>
      <point x="90" y="121"/>
      <point x="66" y="99"/>
      <point x="66" y="64" type="curve" smooth="yes"/>
      <point x="66" y="29"/>
      <point x="99" y="8"/>
      <point x="139" y="8" type="curve" smooth="yes"/>
      <point x="176" y="8"/>
      <point x="209" y="35"/>
    </contour>
  </outline>
</glyph>
<glyph name="yen" format="1">
  <advance width="615"/>
  <unicode hex="00A5"/>
  <outline>
    <contour>
      <point x="298" y="357" type="line"/>
      <point x="30" y="730" type="line"/>
      <point x="55" y="730" type="line"/>
      <point x="308" y="378" type="line"/>
      <point x="561" y="730" type="line"/>
      <point x="585" y="730" type="line"/>
      <point x="320" y="360" type="line"/>
      <point x="320" y="260" type="line"/>
      <point x="518" y="260" type="line"/>
      <point x="518" y="240" type="line"/>
      <point x="320" y="240" type="line"/>
      <point x="320" y="144" type="line"/>
      <point x="518" y="144" type="line"/>
      <point x="518" y="124" type="line"/>
      <point x="320" y="124" type="line"/>
      <point x="320" y="0" type="line"/>
      <point x="298" y="0" type="line"/>
      <point x="298" y="124" type="line"/>
      <point x="90" y="124" type="line"/>
      <point x="90" y="144" type="line"/>
      <point x="298" y="144" type="line"/>
      <point x="298" y="240" type="line"/>
      <point x="90" y="240" type="line"/>
      <point x="90" y="260" type="line"/>
      <point x="298" y="260" type="line"/>
    </contour>
  </outline>
</glyph>
<glyph name="brokenbar" format="1">
  <advance width="186"/>
  <unicode hex="00A6"/>
  <outline>
    <contour>
      <point x="104" y="351" type="line"/>
      <point x="82" y="351" type="line"/>
      <point x="82" y="730" type="line"/>
      <point x="104" y="730" type="line"/>
    </contour>
    <contour>
      <point x="104" y="-179" type="line"/>
      <point x="82" y="-179" type="line"/>
      <point x="82" y="200" type="line"/>
      <point x="104" y="200" type="line"/>
    </contour>
  </outline>
</glyph>
<glyph name="section" format="1">
  <advance width="616"/>
  <unicode hex="00A7"/>
  <outline>
    <contour>
      <point x="169" y="492" type="curve"/>
      <point x="133" y="518"/>
      <point x="109" y="552"/>
      <point x="109" y="602" type="curve" smooth="yes"/>
      <point x="109" y="688"/>
      <point x="188" y="742"/>
      <point x="302" y="742" type="curve" smooth="yes"/>
      <point x="399" y="742"/>
      <point x="469" y="703"/>
      <point x="512" y="663" type="curve"/>
      <point x="496" y="647" type="line"/>
      <point x="459" y="683"/>
      <point x="391" y="722"/>
      <point x="302" y="722" type="curve" smooth="yes"/>
      <point x="202" y="722"/>
      <point x="131" y="677"/>
      <point x="131" y="602" type="curve" smooth="yes"/>
      <point x="131" y="506"/>
      <point x="241" y="476"/>
      <point x="354" y="440" type="curve" smooth="yes"/>
      <point x="473" y="402"/>
      <point x="583" y="361"/>
      <point x="583" y="237" type="curve" smooth="yes"/>
      <point x="583" y="159"/>
      <point x="521" y="99"/>
      <point x="448" y="59" type="curve"/>
      <point x="484" y="33"/>
      <point x="507" y="0"/>
      <point x="507" y="-50" type="curve" smooth="yes"/>
      <point x="507" y="-136"/>
      <point x="428" y="-190"/>
      <point x="314" y="-190" type="curve" smooth="yes"/>
      <point x="217" y="-190"/>
      <point x="147" y="-151"/>
      <point x="104" y="-111" type="curve"/>
      <point x="120" y="-95" type="line"/>
      <point x="157" y="-131"/>
      <point x="225" y="-170"/>
      <point x="314" y="-170" type="curve" smooth="yes"/>
      <point x="414" y="-170"/>
      <point x="485" y="-125"/>
      <point x="485" y="-50" type="curve" smooth="yes"/>
      <point x="485" y="46"/>
      <point x="375" y="76"/>
      <point x="262" y="112" type="curve" smooth="yes"/>
      <point x="143" y="150"/>
      <point x="33" y="191"/>
      <point x="33" y="315" type="curve" smooth="yes"/>
      <point x="33" y="393"/>
      <point x="96" y="450"/>
    </contour>
    <contour>
      <point x="429" y="71" type="curve"/>
      <point x="504" y="112"/>
      <point x="561" y="164"/>
      <point x="561" y="237" type="curve" smooth="yes"/>
      <point x="561" y="346"/>
      <point x="456" y="385"/>
      <point x="347" y="420" type="curve" smooth="yes"/>
      <point x="289" y="439"/>
      <point x="232" y="454"/>
      <point x="187" y="481" type="curve"/>
      <point x="115" y="441"/>
      <point x="55" y="388"/>
      <point x="55" y="315" type="curve" smooth="yes"/>
      <point x="55" y="206"/>
      <point x="160" y="167"/>
      <point x="269" y="132" type="curve" smooth="yes"/>
      <point x="327" y="113"/>
      <point x="385" y="97"/>
    </contour>
  </outline>
</glyph>
<glyph name="dieresis" format="1">
  <advance width="435"/>
  <unicode hex="00A8"/>
  <outline>
    <contour>
      <point x="314" y="484" type="line"/>
      <point x="291" y="484" type="line"/>
      <point x="291" y="568" type="line"/>
      <point x="314" y="568" type="line"/>
    </contour>
    <contour>
      <point x="144" y="484" type="line"/>
      <point x="121" y="484" type="line"/>
      <point x="121" y="568" type="line"/>
      <point x="144" y="568" type="line"/>
    </contour>
  </outline>
</glyph>
<glyph name="copyright" format="1">
  <advance width="844"/>
  <unicode hex="00A9"/>
  <outline>
    <contour>
      <point x="45" y="365" type="curve" smooth="yes"/>
      <point x="45" y="573"/>
      <point x="214" y="742"/>
      <point x="422" y="742" type="curve" smooth="yes"/>
      <point x="630" y="742"/>
      <point x="799" y="573"/>
      <point x="799" y="365" type="curve" smooth="yes"/>
      <point x="799" y="157"/>
      <point x="630" y="-12"/>
      <point x="422" y="-12" type="curve" smooth="yes"/>
      <point x="214" y="-12"/>
      <point x="45" y="157"/>
    </contour>
    <contour>
      <point x="777" y="365" type="curve" smooth="yes"/>
      <point x="777" y="561"/>
      <point x="618" y="722"/>
      <point x="422" y="722" type="curve" smooth="yes"/>
      <point x="226" y="722"/>
      <point x="67" y="561"/>
      <point x="67" y="365" type="curve" smooth="yes"/>
      <point x="67" y="169"/>
      <point x="226" y="8"/>
      <point x="422" y="8" type="curve" smooth="yes"/>
      <point x="618" y="8"/>
      <point x="777" y="169"/>
    </contour>
    <contour>
      <point x="586" y="217" type="line"/>
      <point x="556" y="182"/>
      <point x="499" y="141"/>
      <point x="422" y="141" type="curve" smooth="yes"/>
      <point x="302" y="141"/>
      <point x="209" y="238"/>
      <point x="209" y="367" type="curve" smooth="yes"/>
      <point x="209" y="489"/>
      <point x="296" y="593"/>
      <point x="418" y="593" type="curve" smooth="yes"/>
      <point x="483" y="593"/>
      <point x="543" y="567"/>
      <point x="577" y="525" type="curve"/>
      <point x="560" y="511" type="line"/>
      <point x="529" y="549"/>
      <point x="475" y="573"/>
      <point x="418" y="573" type="curve" smooth="yes"/>
      <point x="308" y="573"/>
      <point x="231" y="477"/>
      <point x="231" y="367" type="curve" smooth="yes"/>
      <point x="231" y="250"/>
      <point x="314" y="161"/>
      <point x="422" y="161" type="curve" smooth="yes"/>
      <point x="491" y="161"/>
      <point x="542" y="200"/>
      <point x="570" y="231" type="curve"/>
    </contour>
  </outline>
</glyph>
<glyph name="ordfeminine" format="1">
  <advance width="403"/>
  <unicode hex="00AA"/>
  <outline>
    <contour>
      <point x="298" y="611" type="line"/>
      <point x="298" y="641" type="line" smooth="yes"/>
      <point x="298" y="691"/>
      <point x="273" y="722"/>
      <point x="201" y="722" type="curve" smooth="yes"/>
      <point x="158" y="722"/>
      <point x="125" y="708"/>
      <point x="106" y="697" type="curve"/>
      <point x="96" y="715" type="line"/>
      <point x="119" y="727"/>
      <point x="152" y="742"/>
      <point x="202" y="742" type="curve" smooth="yes"/>
      <point x="290" y="742"/>
      <point x="320" y="703"/>
      <point x="320" y="641" type="curve" smooth="yes"/>
      <point x="320" y="401" type="line"/>
      <point x="298" y="401" type="line"/>
      <point x="298" y="434" type="line"/>
      <point x="267" y="410"/>
      <point x="223" y="391"/>
      <point x="170" y="391" type="curve" smooth="yes"/>
      <point x="105" y="391"/>
      <point x="63" y="440"/>
      <point x="63" y="495" type="curve" smooth="yes"/>
      <point x="63" y="567"/>
      <point x="127" y="611"/>
      <point x="225" y="611" type="curve" smooth="yes"/>
    </contour>
    <contour>
      <point x="329" y="316" type="line"/>
      <point x="63" y="316" type="line"/>
      <point x="63" y="336" type="line"/>
      <point x="329" y="336" type="line"/>
    </contour>
    <contour>
      <point x="298" y="457" type="curve"/>
      <point x="298" y="591" type="line"/>
      <point x="231" y="591" type="line" smooth="yes"/>
      <point x="135" y="591"/>
      <point x="85" y="556"/>
      <point x="85" y="495" type="curve" smooth="yes"/>
      <point x="85" y="452"/>
      <point x="115" y="411"/>
      <point x="173" y="411" type="curve" smooth="yes"/>
      <point x="223" y="411"/>
      <point x="269" y="433"/>
    </contour>
  </outline>
</glyph>
<glyph name="guillemotleft" format="1">
  <advance width="309"/>
  <unicode hex="00AB"/>
  <outline>
    <contour>
      <point x="289" y="330" type="line"/>
      <point x="289" y="306" type="line"/>
      <point x="172" y="205" type="line"/>
      <point x="290" y="104" type="line"/>
      <point x="290" y="80" type="line"/>
      <point x="147" y="194" type="line"/>
      <point x="147" y="216" type="line"/>
    </contour>
    <contour>
      <point x="164" y="330" type="line"/>
      <point x="164" y="306" type="line"/>
      <point x="47" y="205" type="line"/>
      <point x="165" y="104" type="line"/>
      <point x="165" y="80" type="line"/>
      <point x="22" y="194" type="line"/>
      <point x="22" y="216" type="line"/>
    </contour>
  </outline>
</glyph>
<glyph name="degree" format="1">
  <advance width="358"/>
  <unicode hex="00B0"/>
  <outline>
    <contour>
      <point x="32" y="585" type="curve" smooth="yes"/>
      <point x="32" y="670"/>
      <point x="97" y="739"/>
      <point x="179" y="739" type="curve" smooth="yes"/>
      <point x="261" y="739"/>
      <point x="326" y="670"/>
      <point x="326" y="585" type="curve" smooth="yes"/>
      <point x="326" y="500"/>
      <point x="261" y="431"/>
      <point x="179" y="431" type="curve" smooth="yes"/>
      <point x="97" y="431"/>
      <point x="32" y="500"/>
    </contour>
    <contour>
      <point x="306" y="585" type="curve" smooth="yes"/>
      <point x="306" y="658"/>
      <point x="251" y="720"/>
      <point x="179" y="720" type="curve" smooth="yes"/>
      <point x="107" y="720"/>
      <point x="52" y="658"/>
      <point x="52" y="585" type="curve" smooth="yes"/>
      <point x="52" y="512"/>
      <point x="107" y="450"/>
      <point x="179" y="450" type="curve" smooth="yes"/>
      <point x="251" y="450"/>
      <point x="306" y="512"/>
    </contour>
  </outline>
</glyph>
<glyph name="twosuperior" format="1">
  <advance width="405"/>
  <unicode hex="00B2"/>
  <outline>
    <contour>
      <point x="206" y="740" type="curve" smooth="yes"/>
      <point x="270" y="740"/>
      <point x="315" y="698"/>
      <point x="315" y="636" type="curve" smooth="yes"/>
      <point x="315" y="595"/>
      <point x="300" y="571"/>
      <point x="270" y="538" type="curve" smooth="yes"/>
      <point x="129" y="379" type="line"/>
      <point x="317" y="379" type="line"/>
      <point x="317" y="359" type="line"/>
      <point x="85" y="359" type="line"/>
      <point x="254" y="551" type="line" smooth="yes"/>
      <point x="279" y="580"/>
      <point x="294" y="601"/>
      <point x="294" y="637" type="curve" smooth="yes"/>
      <point x="294" y="686"/>
      <point x="257" y="720"/>
      <point x="206" y="720" type="curve" smooth="yes"/>
      <point x="156" y="720"/>
      <point x="120" y="686"/>
      <point x="113" y="635" type="curve"/>
      <point x="92" y="635" type="line"/>
      <point x="101" y="700"/>
      <point x="145" y="740"/>
    </contour>
  </outline>
</glyph>
<glyph name="acute" format="1">
  <advance width="433"/>
  <unicode hex="00B4"/>
  <outline>
    <contour>
      <point x="313" y="614" type="line"/>
      <point x="212" y="484" type="line"/>
      <point x="190" y="484" type="line"/>
      <point x="281" y="614" type="line"/>
    </contour>
  </outline>
</glyph>
<glyph name="paragraph" format="1">
  <advance width="578"/>
  <unicode hex="00B6"/>
  <outline>
    <contour>
      <point x="397" y="710" type="line"/>
      <point x="397" y="-179" type="line"/>
      <point x="375" y="-179" type="line"/>
      <point x="375" y="247" type="line"/>
      <point x="280" y="247" type="line" smooth="yes"/>
      <point x="135" y="247"/>
      <point x="27" y="357"/>
      <point x="27" y="485" type="curve" smooth="yes"/>
      <point x="27" y="624"/>
      <point x="131" y="730"/>
      <point x="291" y="730" type="curve" smooth="yes"/>
      <point x="507" y="730" type="line"/>
      <point x="507" y="-179" type="line"/>
      <point x="485" y="-179" type="line"/>
      <point x="485" y="710" type="line"/>
    </contour>
    <contour>
      <point x="375" y="267" type="line"/>
      <point x="375" y="710" type="line"/>
      <point x="286" y="710" type="line" smooth="yes"/>
      <point x="145" y="710"/>
      <point x="49" y="612"/>
      <point x="49" y="486" type="curve" smooth="yes"/>
      <point x="49" y="369"/>
      <point x="147" y="267"/>
      <point x="279" y="267" type="curve" smooth="yes"/>
    </contour>
  </outline>
</glyph>
<glyph name="periodcentered" format="1">
  <advance width="153"/>
  <unicode hex="00B7"/>
  <outline>
    <contour>
      <point x="88" y="321" type="line"/>
      <point x="65" y="321" type="line"/>
      <point x="65" y="396" type="line"/>
      <point x="88" y="396" type="line"/>
    </contour>
  </outline>
</glyph>
<glyph name="cedilla" format="1">
  <advance width="435"/>
  <unicode hex="00B8"/>
  <outline>
    <contour>
      <point x="235" y="0" type="line"/>
      <point x="195" y="-54" type="line"/>
      <point x="202" y="-53"/>
      <point x="213" y="-51"/>
      <point x="227" y="-51" type="curve" smooth="yes"/>
      <point x="261" y="-51"/>
      <point x="304" y="-65"/>
      <point x="304" y="-109" type="curve" smooth="yes"/>
      <point x="304" y="-159"/>
      <point x="269" y="-179"/>
      <point x="219" y="-179" type="curve" smooth="yes"/>
      <point x="183" y="-179"/>
      <point x="153" y="-168"/>
      <point x="126" y="-146" type="curve"/>
      <point x="139" y="-130" type="line"/>
      <point x="161" y="-149"/>
      <point x="189" y="-159"/>
      <point x="219" y="-159" type="curve" smooth="yes"/>
      <point x="256" y="-159"/>
      <point x="284" y="-146"/>
      <point x="284" y="-110" type="curve" smooth="yes"/>
      <point x="284" y="-86"/>
      <point x="262" y="-69"/>
      <point x="220" y="-69" type="curve" smooth="yes"/>
      <point x="206" y="-69"/>
      <point x="190" y="-71"/>
      <point x="172" y="-74" type="curve"/>
      <point x="166" y="-65" type="line"/>
      <point x="212" y="0" type="line"/>
    </contour>
  </outline>
</glyph>
<glyph name="ordmasculine" format="1">
  <advance width="452"/>
  <unicode hex="00BA"/>
  <outline>
    <contour>
      <point x="60" y="568" type="curve" smooth="yes"/>
      <point x="60" y="671"/>
      <point x="134" y="743"/>
      <point x="226" y="743" type="curve" smooth="yes"/>
      <point x="318" y="743"/>
      <point x="392" y="671"/>
      <point x="392" y="568" type="curve" smooth="yes"/>
      <point x="392" y="465"/>
      <point x="318" y="392"/>
      <point x="226" y="392" type="curve" smooth="yes"/>
      <point x="134" y="392"/>
      <point x="60" y="465"/>
    </contour>
    <contour>
      <point x="385" y="316" type="line"/>
      <point x="67" y="316" type="line"/>
      <point x="67" y="336" type="line"/>
      <point x="385" y="336" type="line"/>
    </contour>
    <contour>
      <point x="370" y="568" type="curve" smooth="yes"/>
      <point x="370" y="657"/>
      <point x="306" y="723"/>
      <point x="226" y="723" type="curve" smooth="yes"/>
      <point x="146" y="723"/>
      <point x="82" y="657"/>
      <point x="82" y="568" type="curve" smooth="yes"/>
      <point x="82" y="479"/>
      <point x="146" y="412"/>
      <point x="226" y="412" type="curve" smooth="yes"/>
      <point x="306" y="412"/>
      <point x="370" y="479"/>
    </contour>
  </outline>
</glyph>
<glyph name="guillemotright" format="1">
  <advance width="309"/>
  <unicode hex="00BB"/>
  <outline>
    <contour>
      <point x="145" y="330" type="line"/>
      <point x="287" y="216" type="line"/>
      <point x="287" y="194" type="line"/>
      <point x="144" y="80" type="line"/>
      <point x="144" y="104" type="line"/>
      <point x="262" y="205" type="line"/>
      <point x="145" y="306" type="line"/>
    </contour>
    <contour>
      <point x="20" y="330" type="line"/>
      <point x="162" y="216" type="line"/>
      <point x="162" y="194" type="line"/>
      <point x="19" y="80" type="line"/>
      <point x="19" y="104" type="line"/>
      <point x="137" y="205" type="line"/>
      <point x="20" y="306" type="line"/>
    </contour>
  </outline>
</glyph>
<glyph name="onequarter" format="1">
  <advance width="722"/>
  <unicode hex="00BC"/>
  <outline>
    <contour>
      <point x="153" y="355" type="line"/>
      <point x="153" y="684" type="line"/>
      <point x="139" y="668"/>
      <point x="115" y="652"/>
      <point x="89" y="649" type="curve"/>
      <point x="89" y="670" type="line"/>
      <point x="120" y="673"/>
      <point x="148" y="699"/>
      <point x="157" y="730" type="curve"/>
      <point x="174" y="730" type="line"/>
      <point x="174" y="355" type="line"/>
    </contour>
    <contour>
      <point x="608" y="730" type="line"/>
      <point x="111" y="0" type="line"/>
      <point x="87" y="0" type="line"/>
      <point x="584" y="730" type="line"/>
    </contour>
    <contour>
      <point x="594" y="103" type="line"/>
      <point x="594" y="0" type="line"/>
      <point x="573" y="0" type="line"/>
      <point x="573" y="103" type="line"/>
      <point x="398" y="103" type="line"/>
      <point x="398" y="116" type="line"/>
      <point x="580" y="375" type="line"/>
      <point x="594" y="375" type="line"/>
      <point x="594" y="123" type="line"/>
      <point x="653" y="123" type="line"/>
      <point x="653" y="103" type="line"/>
    </contour>
    <contour>
      <point x="573" y="330" type="line"/>
      <point x="428" y="123" type="line"/>
      <point x="573" y="123" type="line"/>
    </contour>
  </outline>
</glyph>
<glyph name="onehalf" format="1">
  <advance width="772"/>
  <unicode hex="00BD"/>
  <outline>
    <contour>
      <point x="153" y="355" type="line"/>
      <point x="153" y="684" type="line"/>
      <point x="139" y="668"/>
      <point x="115" y="652"/>
      <point x="89" y="649" type="curve"/>
      <point x="89" y="670" type="line"/>
      <point x="120" y="673"/>
      <point x="148" y="699"/>
      <point x="157" y="730" type="curve"/>
      <point x="174" y="730" type="line"/>
      <point x="174" y="355" type="line"/>
    </contour>
    <contour>
      <point x="608" y="730" type="line"/>
      <point x="111" y="0" type="line"/>
      <point x="87" y="0" type="line"/>
      <point x="584" y="730" type="line"/>
    </contour>
    <contour>
      <point x="577" y="381" type="curve" smooth="yes"/>
      <point x="641" y="381"/>
      <point x="686" y="339"/>
      <point x="686" y="277" type="curve" smooth="yes"/>
      <point x="686" y="236"/>
      <point x="671" y="212"/>
      <point x="641" y="179" type="curve" smooth="yes"/>
      <point x="500" y="20" type="line"/>
      <point x="688" y="20" type="line"/>
      <point x="688" y="0" type="line"/>
      <point x="456" y="0" type="line"/>
      <point x="625" y="192" type="line" smooth="yes"/>
      <point x="650" y="221"/>
      <point x="665" y="242"/>
      <point x="665" y="278" type="curve" smooth="yes"/>
      <point x="665" y="327"/>
      <point x="628" y="361"/>
      <point x="577" y="361" type="curve" smooth="yes"/>
      <point x="527" y="361"/>
      <point x="491" y="327"/>
      <point x="484" y="276" type="curve"/>
      <point x="463" y="276" type="line"/>
      <point x="472" y="341"/>
      <point x="516" y="381"/>
    </contour>
  </outline>
</glyph>
<glyph name="threequarters" format="1">
  <advance width="789"/>
  <unicode hex="00BE"/>
  <outline>
    <contour>
      <point x="167" y="551" type="line"/>
      <point x="167" y="571" type="line"/>
      <point x="218" y="571" type="line" smooth="yes"/>
      <point x="265" y="571"/>
      <point x="293" y="607"/>
      <point x="293" y="647" type="curve" smooth="yes"/>
      <point x="293" y="692"/>
      <point x="257" y="720"/>
      <point x="211" y="720" type="curve" smooth="yes"/>
      <point x="165" y="720"/>
      <point x="138" y="700"/>
      <point x="116" y="668" type="curve"/>
      <point x="98" y="679" type="line"/>
      <point x="125" y="716"/>
      <point x="159" y="740"/>
      <point x="211" y="740" type="curve" smooth="yes"/>
      <point x="271" y="740"/>
      <point x="314" y="704"/>
      <point x="314" y="647" type="curve" smooth="yes"/>
      <point x="314" y="608"/>
      <point x="292" y="575"/>
      <point x="263" y="562" type="curve"/>
      <point x="301" y="550"/>
      <point x="329" y="516"/>
      <point x="329" y="467" type="curve" smooth="yes"/>
      <point x="329" y="397"/>
      <point x="277" y="353"/>
      <point x="205" y="353" type="curve" smooth="yes"/>
      <point x="151" y="353"/>
      <point x="110" y="378"/>
      <point x="80" y="415" type="curve"/>
      <point x="95" y="429" type="line"/>
      <point x="123" y="395"/>
      <point x="159" y="373"/>
      <point x="205" y="373" type="curve" smooth="yes"/>
      <point x="264" y="373"/>
      <point x="308" y="409"/>
      <point x="308" y="466" type="curve" smooth="yes"/>
      <point x="308" y="518"/>
      <point x="273" y="551"/>
      <point x="215" y="551" type="curve" smooth="yes"/>
    </contour>
    <contour>
      <point x="675" y="730" type="line"/>
      <point x="178" y="0" type="line"/>
      <point x="154" y="0" type="line"/>
      <point x="651" y="730" type="line"/>
    </contour>
    <contour>
      <point x="661" y="103" type="line"/>
      <point x="661" y="0" type="line"/>
      <point x="640" y="0" type="line"/>
      <point x="640" y="103" type="line"/>
      <point x="465" y="103" type="line"/>
      <point x="465" y="116" type="line"/>
      <point x="647" y="375" type="line"/>
      <point x="661" y="375" type="line"/>
      <point x="661" y="123" type="line"/>
      <point x="720" y="123" type="line"/>
      <point x="720" y="103" type="line"/>
    </contour>
    <contour>
      <point x="640" y="330" type="line"/>
      <point x="495" y="123" type="line"/>
      <point x="640" y="123" type="line"/>
    </contour>
  </outline>
</glyph>
<glyph name="questiondown" format="1">
  <advance width="432"/>
  <unicode hex="00BF"/>
  <outline>
    <contour>
      <point x="224" y="646" type="line"/>
      <point x="224" y="730" type="line"/>
      <point x="246" y="730" type="line"/>
      <point x="246" y="646" type="line"/>
    </contour>
    <contour>
      <point x="397" y="96" type="line"/>
      <point x="363" y="38"/>
      <point x="302" y="-12"/>
      <point x="210" y="-12" type="curve" smooth="yes"/>
      <point x="109" y="-12"/>
      <point x="49" y="61"/>
      <point x="49" y="156" type="curve" smooth="yes"/>
      <point x="49" y="231"/>
      <point x="90" y="287"/>
      <point x="146" y="361" type="curve" smooth="yes"/>
      <point x="214" y="451"/>
      <point x="226" y="491"/>
      <point x="226" y="557" type="curve" smooth="yes"/>
      <point x="226" y="599" type="line"/>
      <point x="248" y="599" type="line"/>
      <point x="248" y="557" type="line" smooth="yes"/>
      <point x="248" y="487"/>
      <point x="236" y="443"/>
      <point x="164" y="349" type="curve" smooth="yes"/>
      <point x="111" y="280"/>
      <point x="71" y="225"/>
      <point x="71" y="156" type="curve" smooth="yes"/>
      <point x="71" y="73"/>
      <point x="123" y="8"/>
      <point x="210" y="8" type="curve" smooth="yes"/>
      <point x="292" y="8"/>
      <point x="346" y="52"/>
      <point x="378" y="107" type="curve"/>
    </contour>
  </outline>
</glyph>
<glyph name="Adieresis" format="1">
  <advance width="620"/>
  <unicode hex="00C4"/>
  <outline>
    <contour>
      <point x="487" y="646" type="line"/>
      <point x="464" y="646" type="line"/>
      <point x="464" y="730" type="line"/>
      <point x="487" y="730" type="line"/>
    </contour>
    <contour>
      <point x="167" y="646" type="line"/>
      <point x="144" y="646" type="line"/>
      <point x="144" y="730" type="line"/>
      <point x="167" y="730" type="line"/>
    </contour>
    <component base="A" xOffset="2" yOffset="2"/>
  </outline>
</glyph>
<glyph name="Aring" format="1">
  <advance width="620"/>
  <unicode hex="00C5"/>
  <outline>
    <contour>
      <point x="161" y="290" type="line"/>
      <point x="54" y="0" type="line"/>
      <point x="32" y="0" type="line"/>
      <point x="297" y="714" type="line"/>
      <point x="257" y="722"/>
      <point x="224" y="758"/>
      <point x="224" y="804" type="curve" smooth="yes"/>
      <point x="224" y="857"/>
      <point x="267" y="896"/>
      <point x="314" y="896" type="curve" smooth="yes"/>
      <point x="361" y="896"/>
      <point x="404" y="857"/>
      <point x="404" y="804" type="curve" smooth="yes"/>
      <point x="404" y="758"/>
      <point x="372" y="723"/>
      <point x="332" y="714" type="curve"/>
      <point x="588" y="0" type="line"/>
      <point x="565" y="0" type="line"/>
      <point x="462" y="290" type="line"/>
    </contour>
    <contour>
      <point x="384" y="804" type="curve" smooth="yes"/>
      <point x="384" y="845"/>
      <point x="351" y="877"/>
      <point x="314" y="877" type="curve" smooth="yes"/>
      <point x="277" y="877"/>
      <point x="244" y="845"/>
      <point x="244" y="804" type="curve" smooth="yes"/>
      <point x="244" y="763"/>
      <point x="277" y="731"/>
      <point x="314" y="731" type="curve" smooth="yes"/>
      <point x="351" y="731"/>
      <point x="384" y="763"/>
    </contour>
    <contour>
      <point x="454" y="310" type="line"/>
      <point x="314" y="704" type="line"/>
      <point x="168" y="310" type="line"/>
    </contour>
  </outline>
</glyph>
<glyph name="AE" format="1">
  <advance width="852"/>
  <unicode hex="00C6"/>
  <outline>
    <contour>
      <point x="446" y="240" type="line"/>
      <point x="176" y="240" type="line"/>
      <point x="40" y="0" type="line"/>
      <point x="16" y="0" type="line"/>
      <point x="431" y="730" type="line"/>
      <point x="801" y="730" type="line"/>
      <point x="801" y="710" type="line"/>
      <point x="468" y="710" type="line"/>
      <point x="468" y="395" type="line"/>
      <point x="761" y="395" type="line"/>
      <point x="761" y="375" type="line"/>
      <point x="468" y="375" type="line"/>
      <point x="468" y="20" type="line"/>
      <point x="820" y="20" type="line"/>
      <point x="820" y="0" type="line"/>
      <point x="446" y="0" type="line"/>
    </contour>
    <contour>
      <point x="187" y="260" type="line"/>
      <point x="446" y="260" type="line"/>
      <point x="446" y="716" type="line"/>
    </contour>
  </outline>
</glyph>
<glyph name="Ccedilla" format="1">
  <advance width="707"/>
  <unicode hex="00C7"/>
  <outline>
    <contour>
      <point x="371" y="-11" type="line"/>
      <point x="201" y="-1"/>
      <point x="46" y="152"/>
      <point x="46" y="364" type="curve" smooth="yes"/>
      <point x="46" y="568"/>
      <point x="192" y="742"/>
      <point x="391" y="742" type="curve" smooth="yes"/>
      <point x="512" y="742"/>
      <point x="595" y="690"/>
      <point x="651" y="625" type="curve"/>
      <point x="636" y="612" type="line"/>
      <point x="578" y="675"/>
      <point x="506" y="722"/>
      <point x="391" y="722" type="curve" smooth="yes"/>
      <point x="204" y="722"/>
      <point x="68" y="556"/>
      <point x="68" y="365" type="curve" smooth="yes"/>
      <point x="68" y="159"/>
      <point x="222" y="8"/>
      <point x="389" y="8" type="curve" smooth="yes"/>
      <point x="501" y="8"/>
      <point x="586" y="61"/>
      <point x="648" y="132" type="curve"/>
      <point x="663" y="119" type="line"/>
      <point x="601" y="46"/>
      <point x="505" y="-11"/>
      <point x="393" y="-12" type="curve"/>
      <point x="362" y="-54" type="line"/>
      <point x="369" y="-53"/>
      <point x="380" y="-51"/>
      <point x="394" y="-51" type="curve" smooth="yes"/>
      <point x="428" y="-51"/>
      <point x="471" y="-65"/>
      <point x="471" y="-109" type="curve" smooth="yes"/>
      <point x="471" y="-159"/>
      <point x="436" y="-179"/>
      <point x="386" y="-179" type="curve" smooth="yes"/>
      <point x="350" y="-179"/>
      <point x="320" y="-168"/>
      <point x="293" y="-146" type="curve"/>
      <point x="306" y="-130" type="line"/>
      <point x="328" y="-149"/>
      <point x="356" y="-159"/>
      <point x="386" y="-159" type="curve" smooth="yes"/>
      <point x="423" y="-159"/>
      <point x="451" y="-146"/>
      <point x="451" y="-110" type="curve" smooth="yes"/>
      <point x="451" y="-86"/>
      <point x="429" y="-69"/>
      <point x="387" y="-69" type="curve" smooth="yes"/>
      <point x="373" y="-69"/>
      <point x="357" y="-71"/>
      <point x="339" y="-74" type="curve"/>
      <point x="333" y="-65" type="line"/>
    </contour>
  </outline>
</glyph>
<glyph name="Eth" format="1">
  <advance width="652"/>
  <unicode hex="00D0"/>
  <outline>
    <contour>
      <point x="98" y="372" type="line"/>
      <point x="38" y="372" type="line"/>
      <point x="38" y="392" type="line"/>
      <point x="98" y="392" type="line"/>
      <point x="98" y="730" type="line"/>
      <point x="224" y="730" type="line" smooth="yes"/>
      <point x="440" y="730"/>
      <point x="605" y="617"/>
      <point x="605" y="374" type="curve" smooth="yes"/>
      <point x="605" y="120"/>
      <point x="436" y="0"/>
      <point x="222" y="0" type="curve" smooth="yes"/>
      <point x="98" y="0" type="line"/>
    </contour>
    <contour>
      <point x="120" y="392" type="line"/>
      <point x="308" y="392" type="line"/>
      <point x="308" y="372" type="line"/>
      <point x="120" y="372" type="line"/>
      <point x="120" y="20" type="line"/>
      <point x="224" y="20" type="line" smooth="yes"/>
      <point x="423" y="20"/>
      <point x="583" y="132"/>
      <point x="583" y="374" type="curve" smooth="yes"/>
      <point x="583" y="603"/>
      <point x="423" y="710"/>
      <point x="224" y="710" type="curve" smooth="yes"/>
      <point x="120" y="710" type="line"/>
    </contour>
  </outline>
</glyph>
<glyph name="Odieresis" format="1">
  <advance width="800"/>
  <unicode hex="00D6"/>
  <outline>
    <contour>
      <point x="727" y="646" type="line"/>
      <point x="704" y="646" type="line"/>
      <point x="704" y="730" type="line"/>
      <point x="727" y="730" type="line"/>
    </contour>
    <contour>
      <point x="97" y="646" type="line"/>
      <point x="74" y="646" type="line"/>
      <point x="74" y="730" type="line"/>
      <point x="97" y="730" type="line"/>
    </contour>
    <component base="O"/>
  </outline>
</glyph>
<glyph name="multiply" format="1">
  <advance width="483"/>
  <unicode hex="00D7"/>
  <outline>
    <contour>
      <point x="377" y="179" type="line"/>
      <point x="241" y="315" type="line"/>
      <point x="103" y="177" type="line"/>
      <point x="89" y="191" type="line"/>
      <point x="227" y="329" type="line"/>
      <point x="89" y="466" type="line"/>
      <point x="104" y="481" type="line"/>
      <point x="241" y="343" type="line"/>
      <point x="380" y="483" type="line"/>
      <point x="394" y="469" type="line"/>
      <point x="255" y="329" type="line"/>
      <point x="391" y="193" type="line"/>
    </contour>
  </outline>
</glyph>
<glyph name="Oslash" format="1">
  <advance width="800"/>
  <unicode hex="00D8"/>
  <outline>
    <contour>
      <point x="148" y="93" type="curve"/>
      <point x="83" y="164"/>
      <point x="45" y="258"/>
      <point x="45" y="365" type="curve" smooth="yes"/>
      <point x="45" y="573"/>
      <point x="193" y="742"/>
      <point x="401" y="742" type="curve" smooth="yes"/>
      <point x="496" y="742"/>
      <point x="578" y="707"/>
      <point x="639" y="649" type="curve"/>
      <point x="721" y="742" type="line"/>
      <point x="735" y="728" type="line"/>
      <point x="735" y="728"/>
      <point x="680" y="667"/>
      <point x="653" y="635" type="curve"/>
      <point x="717" y="567"/>
      <point x="755" y="472"/>
      <point x="755" y="366" type="curve" smooth="yes"/>
      <point x="755" y="158"/>
      <point x="609" y="-12"/>
      <point x="401" y="-12" type="curve" smooth="yes"/>
      <point x="307" y="-12"/>
      <point x="225" y="23"/>
      <point x="163" y="80" type="curve"/>
      <point x="81" y="-13" type="line"/>
      <point x="67" y="1" type="line"/>
      <point x="67" y="1"/>
      <point x="121" y="62"/>
    </contour>
    <contour>
      <point x="163" y="110" type="curve"/>
      <point x="624" y="632" type="line"/>
      <point x="567" y="688"/>
      <point x="491" y="722"/>
      <point x="401" y="722" type="curve" smooth="yes"/>
      <point x="205" y="722"/>
      <point x="67" y="562"/>
      <point x="67" y="366" type="curve" smooth="yes"/>
      <point x="67" y="266"/>
      <point x="103" y="176"/>
    </contour>
    <contour>
      <point x="638" y="618" type="curve"/>
      <point x="177" y="96" type="line"/>
      <point x="235" y="41"/>
      <point x="312" y="8"/>
      <point x="401" y="8" type="curve" smooth="yes"/>
      <point x="596" y="8"/>
      <point x="733" y="170"/>
      <point x="733" y="365" type="curve" smooth="yes"/>
      <point x="733" y="463"/>
      <point x="698" y="553"/>
    </contour>
  </outline>
</glyph>
<glyph name="Udieresis" format="1">
  <advance width="666"/>
  <unicode hex="00DC"/>
  <outline>
    <contour>
      <point x="430" y="646" type="line"/>
      <point x="407" y="646" type="line"/>
      <point x="407" y="730" type="line"/>
      <point x="430" y="730" type="line"/>
    </contour>
    <contour>
      <point x="260" y="646" type="line"/>
      <point x="237" y="646" type="line"/>
      <point x="237" y="730" type="line"/>
      <point x="260" y="730" type="line"/>
    </contour>
    <component base="U"/>
  </outline>
</glyph>
<glyph name="Thorn" format="1">
  <advance width="518"/>
  <unicode hex="00DE"/>
  <outline>
    <contour>
      <point x="237" y="582" type="line" smooth="yes"/>
      <point x="395" y="582"/>
      <point x="476" y="506"/>
      <point x="476" y="387" type="curve" smooth="yes"/>
      <point x="476" y="261"/>
      <point x="384" y="180"/>
      <point x="234" y="180" type="curve" smooth="yes"/>
      <point x="104" y="180" type="line"/>
      <point x="104" y="0" type="line"/>
      <point x="82" y="0" type="line"/>
      <point x="82" y="730" type="line"/>
      <point x="104" y="730" type="line"/>
      <point x="104" y="582" type="line"/>
    </contour>
    <contour>
      <point x="104" y="200" type="line"/>
      <point x="236" y="200" type="line" smooth="yes"/>
      <point x="372" y="200"/>
      <point x="454" y="273"/>
      <point x="454" y="386" type="curve" smooth="yes"/>
      <point x="454" y="494"/>
      <point x="381" y="562"/>
      <point x="239" y="562" type="curve" smooth="yes"/>
      <point x="104" y="562" type="line"/>
    </contour>
  </outline>
</glyph>
<glyph name="germandbls" format="1">
  <advance width="459"/>
  <unicode hex="00DF"/>
  <outline>
    <contour>
      <point x="182" y="413" type="curve" smooth="yes"/>
      <point x="173" y="413" type="line"/>
      <point x="173" y="433" type="line"/>
      <point x="188" y="433" type="line" smooth="yes"/>
      <point x="272" y="433"/>
      <point x="340" y="498"/>
      <point x="340" y="588" type="curve" smooth="yes"/>
      <point x="340" y="671"/>
      <point x="286" y="722"/>
      <point x="211" y="722" type="curve" smooth="yes"/>
      <point x="132" y="722"/>
      <point x="89" y="657"/>
      <point x="89" y="577" type="curve" smooth="yes"/>
      <point x="89" y="0" type="line"/>
      <point x="67" y="0" type="line"/>
      <point x="67" y="577" type="line" smooth="yes"/>
      <point x="67" y="671"/>
      <point x="119" y="742"/>
      <point x="211" y="742" type="curve" smooth="yes"/>
      <point x="298" y="742"/>
      <point x="362" y="686"/>
      <point x="362" y="588" type="curve" smooth="yes"/>
      <point x="362" y="492"/>
      <point x="292" y="430"/>
      <point x="229" y="424" type="curve"/>
      <point x="300" y="415"/>
      <point x="405" y="342"/>
      <point x="405" y="166" type="curve" smooth="yes"/>
      <point x="405" y="58"/>
      <point x="345" y="-12"/>
      <point x="257" y="-12" type="curve" smooth="yes"/>
      <point x="220" y="-12"/>
      <point x="195" y="-2"/>
      <point x="172" y="10" type="curve"/>
      <point x="180" y="29" type="line"/>
      <point x="201" y="18"/>
      <point x="226" y="8"/>
      <point x="257" y="8" type="curve" smooth="yes"/>
      <point x="334" y="8"/>
      <point x="383" y="73"/>
      <point x="383" y="165" type="curve" smooth="yes"/>
      <point x="383" y="305"/>
      <point x="305" y="413"/>
    </contour>
  </outline>
</glyph>
<glyph name="ae" format="1">
  <advance width="737"/>
  <unicode hex="00E6"/>
  <outline>
    <contour>
      <point x="359" y="85" type="curve"/>
      <point x="306" y="27"/>
      <point x="249" y="-8"/>
      <point x="171" y="-8" type="curve" smooth="yes"/>
      <point x="100" y="-8"/>
      <point x="37" y="25"/>
      <point x="37" y="104" type="curve" smooth="yes"/>
      <point x="37" y="193"/>
      <point x="118" y="227"/>
      <point x="235" y="227" type="curve" smooth="yes"/>
      <point x="331" y="227" type="line"/>
      <point x="331" y="287" type="line" smooth="yes"/>
      <point x="331" y="355"/>
      <point x="291" y="389"/>
      <point x="216" y="389" type="curve" smooth="yes"/>
      <point x="158" y="389"/>
      <point x="119" y="375"/>
      <point x="84" y="357" type="curve"/>
      <point x="75" y="376" type="line"/>
      <point x="115" y="396"/>
      <point x="155" y="409"/>
      <point x="217" y="409" type="curve" smooth="yes"/>
      <point x="303" y="409"/>
      <point x="347" y="369"/>
      <point x="352" y="296" type="curve"/>
      <point x="383" y="368"/>
      <point x="443" y="413"/>
      <point x="519" y="413" type="curve" smooth="yes"/>
      <point x="642" y="413"/>
      <point x="699" y="314"/>
      <point x="706" y="207" type="curve"/>
      <point x="351" y="207" type="line"/>
      <point x="351" y="204"/>
      <point x="351" y="202"/>
      <point x="351" y="199" type="curve" smooth="yes"/>
      <point x="351" y="91"/>
      <point x="422" y="8"/>
      <point x="525" y="8" type="curve" smooth="yes"/>
      <point x="601" y="8"/>
      <point x="642" y="37"/>
      <point x="680" y="76" type="curve"/>
      <point x="695" y="61" type="line"/>
      <point x="652" y="17"/>
      <point x="606" y="-12"/>
      <point x="525" y="-12" type="curve" smooth="yes"/>
      <point x="451" y="-12"/>
      <point x="392" y="26"/>
    </contour>
    <contour>
      <point x="352" y="227" type="curve"/>
      <point x="681" y="227" type="line"/>
      <point x="670" y="311"/>
      <point x="623" y="393"/>
      <point x="519" y="393" type="curve" smooth="yes"/>
      <point x="430" y="393"/>
      <point x="365" y="322"/>
    </contour>
    <contour>
      <point x="331" y="207" type="curve"/>
      <point x="235" y="207" type="line" smooth="yes"/>
      <point x="132" y="207"/>
      <point x="59" y="182"/>
      <point x="59" y="105" type="curve" smooth="yes"/>
      <point x="59" y="40"/>
      <point x="110" y="12"/>
      <point x="172" y="12" type="curve" smooth="yes"/>
      <point x="221" y="12"/>
      <point x="283" y="31"/>
      <point x="350" y="102" type="curve"/>
      <point x="338" y="131"/>
      <point x="331" y="164"/>
      <point x="331" y="199" type="curve" smooth="yes"/>
      <point x="331" y="202"/>
      <point x="331" y="204"/>
    </contour>
  </outline>
</glyph>
<glyph name="ccedilla" format="1">
  <advance width="436"/>
  <unicode hex="00E7"/>
  <outline>
    <contour>
      <point x="206" y="-10" type="line"/>
      <point x="109" y="2"/>
      <point x="37" y="87"/>
      <point x="37" y="199" type="curve" smooth="yes"/>
      <point x="37" y="320"/>
      <point x="121" y="413"/>
      <point x="235" y="413" type="curve" smooth="yes"/>
      <point x="320" y="413"/>
      <point x="369" y="375"/>
      <point x="399" y="331" type="curve"/>
      <point x="381" y="317" type="line"/>
      <point x="353" y="357"/>
      <point x="312" y="393"/>
      <point x="235" y="393" type="curve" smooth="yes"/>
      <point x="133" y="393"/>
      <point x="59" y="308"/>
      <point x="59" y="199" type="curve" smooth="yes"/>
      <point x="59" y="92"/>
      <point x="134" y="8"/>
      <point x="230" y="8" type="curve" smooth="yes"/>
      <point x="305" y="8"/>
      <point x="352" y="47"/>
      <point x="384" y="99" type="curve"/>
      <point x="402" y="87" type="line"/>
      <point x="366" y="29"/>
      <point x="313" y="-12"/>
      <point x="230" y="-12" type="curve" smooth="yes"/>
      <point x="229" y="-12"/>
      <point x="228" y="-12"/>
      <point x="227" y="-12" type="curve"/>
      <point x="196" y="-54" type="line"/>
      <point x="203" y="-53"/>
      <point x="214" y="-51"/>
      <point x="228" y="-51" type="curve" smooth="yes"/>
      <point x="262" y="-51"/>
      <point x="305" y="-65"/>
      <point x="305" y="-109" type="curve" smooth="yes"/>
      <point x="305" y="-159"/>
      <point x="270" y="-179"/>
      <point x="220" y="-179" type="curve" smooth="yes"/>
      <point x="184" y="-179"/>
      <point x="154" y="-168"/>
      <point x="127" y="-146" type="curve"/>
      <point x="140" y="-130" type="line"/>
      <point x="162" y="-149"/>
      <point x="190" y="-159"/>
      <point x="220" y="-159" type="curve" smooth="yes"/>
      <point x="257" y="-159"/>
      <point x="285" y="-146"/>
      <point x="285" y="-110" type="curve" smooth="yes"/>
      <point x="285" y="-86"/>
      <point x="263" y="-69"/>
      <point x="221" y="-69" type="curve" smooth="yes"/>
      <point x="207" y="-69"/>
      <point x="191" y="-71"/>
      <point x="173" y="-74" type="curve"/>
      <point x="167" y="-65" type="line"/>
    </contour>
  </outline>
</glyph>
<glyph name="eth" format="1">
  <advance width="489"/>
  <unicode hex="00F0"/>
  <outline>
    <contour>
      <point x="295" y="593" type="curve"/>
      <point x="162" y="537" type="line"/>
      <point x="154" y="557" type="line"/>
      <point x="280" y="610" type="line"/>
      <point x="238" y="658"/>
      <point x="192" y="698"/>
      <point x="147" y="731" type="curve"/>
      <point x="161" y="749" type="line"/>
      <point x="209" y="714"/>
      <point x="258" y="671"/>
      <point x="302" y="619" type="curve"/>
      <point x="383" y="653" type="line"/>
      <point x="391" y="633" type="line"/>
      <point x="316" y="601" type="line"/>
      <point x="393" y="505"/>
      <point x="452" y="380"/>
      <point x="452" y="222" type="curve" smooth="yes"/>
      <point x="452" y="75"/>
      <point x="369" y="-12"/>
      <point x="242" y="-12" type="curve" smooth="yes"/>
      <point x="121" y="-12"/>
      <point x="35" y="78"/>
      <point x="35" y="199" type="curve" smooth="yes"/>
      <point x="35" y="320"/>
      <point x="124" y="413"/>
      <point x="237" y="413" type="curve" smooth="yes"/>
      <point x="332" y="413"/>
      <point x="400" y="364"/>
      <point x="423" y="315" type="curve"/>
      <point x="406" y="425"/>
      <point x="356" y="518"/>
    </contour>
    <contour>
      <point x="430" y="216" type="curve" smooth="yes"/>
      <point x="430" y="346"/>
      <point x="322" y="393"/>
      <point x="238" y="393" type="curve" smooth="yes"/>
      <point x="136" y="393"/>
      <point x="57" y="308"/>
      <point x="57" y="199" type="curve" smooth="yes"/>
      <point x="57" y="90"/>
      <point x="133" y="8"/>
      <point x="242" y="8" type="curve" smooth="yes"/>
      <point x="355" y="8"/>
      <point x="430" y="91"/>
    </contour>
  </outline>
</glyph>
<glyph name="divide" format="1">
  <advance width="483"/>
  <unicode hex="00F7"/>
  <outline>
    <contour>
      <point x="253" y="453" type="line"/>
      <point x="231" y="453" type="line"/>
      <point x="231" y="537" type="line"/>
      <point x="253" y="537" type="line"/>
    </contour>
    <contour>
      <point x="446" y="320" type="line"/>
      <point x="37" y="320" type="line"/>
      <point x="37" y="340" type="line"/>
      <point x="446" y="340" type="line"/>
    </contour>
    <contour>
      <point x="253" y="125" type="line"/>
      <point x="231" y="125" type="line"/>
      <point x="231" y="209" type="line"/>
      <point x="253" y="209" type="line"/>
    </contour>
  </outline>
</glyph>
<glyph name="oslash" format="1">
  <advance width="486"/>
  <unicode hex="00F8"/>
  <outline>
    <contour>
      <point x="90" y="56" type="line"/>
      <point x="56" y="94"/>
      <point x="37" y="145"/>
      <point x="37" y="200" type="curve" smooth="yes"/>
      <point x="37" y="317"/>
      <point x="126" y="413"/>
      <point x="243" y="413" type="curve" smooth="yes"/>
      <point x="298" y="413"/>
      <point x="347" y="392"/>
      <point x="383" y="357" type="curve"/>
      <point x="437" y="413" type="line"/>
      <point x="451" y="399" type="line"/>
      <point x="451" y="399"/>
      <point x="397" y="343"/>
      <point x="396" y="343" type="curve"/>
      <point x="429" y="305"/>
      <point x="449" y="255"/>
      <point x="449" y="200" type="curve" smooth="yes"/>
      <point x="449" y="83"/>
      <point x="360" y="-12"/>
      <point x="243" y="-12" type="curve" smooth="yes"/>
      <point x="188" y="-12"/>
      <point x="140" y="9"/>
      <point x="104" y="42" type="curve"/>
      <point x="49" y="-14" type="line"/>
      <point x="35" y="0" type="line"/>
    </contour>
    <contour>
      <point x="105" y="72" type="curve"/>
      <point x="368" y="342" type="line"/>
      <point x="336" y="373"/>
      <point x="293" y="393"/>
      <point x="243" y="393" type="curve" smooth="yes"/>
      <point x="138" y="393"/>
      <point x="59" y="305"/>
      <point x="59" y="200" type="curve" smooth="yes"/>
      <point x="59" y="151"/>
      <point x="76" y="106"/>
    </contour>
    <contour>
      <point x="382" y="328" type="curve"/>
      <point x="119" y="58" type="line"/>
      <point x="151" y="27"/>
      <point x="194" y="8"/>
      <point x="243" y="8" type="curve" smooth="yes"/>
      <point x="348" y="8"/>
      <point x="427" y="95"/>
      <point x="427" y="200" type="curve" smooth="yes"/>
      <point x="427" y="248"/>
      <point x="410" y="293"/>
    </contour>
  </outline>
</glyph>
<glyph name="thorn" format="1">
  <advance width="483"/>
  <unicode hex="00FE"/>
  <outline>
    <contour>
      <point x="446" y="201" type="curve" smooth="yes"/>
      <point x="446" y="86"/>
      <point x="370" y="-12"/>
      <point x="249" y="-12" type="curve" smooth="yes"/>
      <point x="165" y="-12"/>
      <point x="100" y="62"/>
      <point x="84" y="117" type="curve"/>
      <point x="84" y="-179" type="line"/>
      <point x="62" y="-179" type="line"/>
      <point x="62" y="740" type="line"/>
      <point x="84" y="740" type="line"/>
      <point x="84" y="284" type="line"/>
      <point x="105" y="343"/>
      <point x="163" y="413"/>
      <point x="250" y="413" type="curve" smooth="yes"/>
      <point x="370" y="413"/>
      <point x="446" y="316"/>
    </contour>
    <contour>
      <point x="424" y="200" type="curve" smooth="yes"/>
      <point x="424" y="302"/>
      <point x="358" y="393"/>
      <point x="249" y="393" type="curve" smooth="yes"/>
      <point x="164" y="393"/>
      <point x="84" y="306"/>
      <point x="84" y="200" type="curve" smooth="yes"/>
      <point x="84" y="95"/>
      <point x="164" y="8"/>
      <point x="250" y="8" type="curve" smooth="yes"/>
      <point x="358" y="8"/>
      <point x="424" y="99"/>
    </contour>
  </outline>
</glyph>
<glyph name="dotlessi" format="1">
  <advance width="146"/>
  <unicode hex="0131"/>
  <outline>
    <contour>
      <point x="84" y="0" type="line"/>
      <point x="62" y="0" type="line"/>
      <point x="62" y="401" type="line"/>
      <point x="84" y="401" type="line"/>
    </contour>
  </outline>
</glyph>
<glyph name="Lslash" format="1">
  <advance width="487"/>
  <unicode hex="0141"/>
  <outline>
    <contour>
      <point x="90" y="322" type="line"/>
      <point x="90" y="730" type="line"/>
      <point x="112" y="730" type="line"/>
      <point x="112" y="331" type="line"/>
      <point x="294" y="405" type="line"/>
      <point x="302" y="387" type="line"/>
      <point x="112" y="310" type="line"/>
      <point x="112" y="20" type="line"/>
      <point x="461" y="20" type="line"/>
      <point x="461" y="0" type="line"/>
      <point x="90" y="0" type="line"/>
      <point x="90" y="301" type="line"/>
      <point x="40" y="281" type="line"/>
      <point x="32" y="299" type="line"/>
    </contour>
  </outline>
</glyph>
<glyph name="lslash" format="1">
  <advance width="211"/>
  <unicode hex="0142"/>
  <outline>
    <contour>
      <point x="86" y="330" type="line"/>
      <point x="86" y="740" type="line"/>
      <point x="108" y="740" type="line"/>
      <point x="108" y="340" type="line"/>
      <point x="182" y="370" type="line"/>
      <point x="190" y="352" type="line"/>
      <point x="108" y="319" type="line"/>
      <point x="108" y="0" type="line"/>
      <point x="86" y="0" type="line"/>
      <point x="86" y="309" type="line"/>
      <point x="28" y="286" type="line"/>
      <point x="20" y="304" type="line"/>
    </contour>
  </outline>
</glyph>
<glyph name="OE" format="1">
  <advance width="1139"/>
  <unicode hex="0152"/>
  <outline>
    <contour>
      <point x="733" y="497" type="curve"/>
      <point x="733" y="730" type="line"/>
      <point x="1088" y="730" type="line"/>
      <point x="1088" y="710" type="line"/>
      <point x="755" y="710" type="line"/>
      <point x="755" y="395" type="line"/>
      <point x="1048" y="395" type="line"/>
      <point x="1048" y="375" type="line"/>
      <point x="755" y="375" type="line"/>
      <point x="755" y="20" type="line"/>
      <point x="1107" y="20" type="line"/>
      <point x="1107" y="0" type="line"/>
      <point x="733" y="0" type="line"/>
      <point x="733" y="235" type="line"/>
      <point x="686" y="90"/>
      <point x="562" y="-12"/>
      <point x="401" y="-12" type="curve" smooth="yes"/>
      <point x="193" y="-12"/>
      <point x="45" y="157"/>
      <point x="45" y="365" type="curve" smooth="yes"/>
      <point x="45" y="573"/>
      <point x="193" y="742"/>
      <point x="401" y="742" type="curve" smooth="yes"/>
      <point x="562" y="742"/>
      <point x="686" y="641"/>
    </contour>
    <contour>
      <point x="733" y="365" type="curve" smooth="yes"/>
      <point x="733" y="560"/>
      <point x="596" y="722"/>
      <point x="401" y="722" type="curve" smooth="yes"/>
      <point x="205" y="722"/>
      <point x="67" y="562"/>
      <point x="67" y="366" type="curve" smooth="yes"/>
      <point x="67" y="170"/>
      <point x="205" y="8"/>
      <point x="401" y="8" type="curve" smooth="yes"/>
      <point x="596" y="8"/>
      <point x="733" y="170"/>
    </contour>
  </outline>
</glyph>
<glyph name="oe" format="1">
  <advance width="840"/>
  <unicode hex="0153"/>
  <outline>
    <contour>
      <point x="437" y="131" type="curve"/>
      <point x="411" y="48"/>
      <point x="336" y="-12"/>
      <point x="243" y="-12" type="curve" smooth="yes"/>
      <point x="126" y="-12"/>
      <point x="37" y="83"/>
      <point x="37" y="200" type="curve" smooth="yes"/>
      <point x="37" y="317"/>
      <point x="126" y="413"/>
      <point x="243" y="413" type="curve" smooth="yes"/>
      <point x="336" y="413"/>
      <point x="411" y="352"/>
      <point x="437" y="268" type="curve"/>
      <point x="462" y="354"/>
      <point x="532" y="413"/>
      <point x="619" y="413" type="curve" smooth="yes"/>
      <point x="742" y="413"/>
      <point x="802" y="314"/>
      <point x="809" y="207" type="curve"/>
      <point x="449" y="207" type="line"/>
      <point x="449" y="204"/>
      <point x="449" y="202"/>
      <point x="449" y="199" type="curve" smooth="yes"/>
      <point x="449" y="91"/>
      <point x="522" y="8"/>
      <point x="625" y="8" type="curve" smooth="yes"/>
      <point x="701" y="8"/>
      <point x="745" y="37"/>
      <point x="783" y="76" type="curve"/>
      <point x="798" y="61" type="line"/>
      <point x="755" y="17"/>
      <point x="706" y="-12"/>
      <point x="625" y="-12" type="curve" smooth="yes"/>
      <point x="533" y="-12"/>
      <point x="462" y="46"/>
    </contour>
    <contour>
      <point x="451" y="227" type="curve"/>
      <point x="784" y="227" type="line"/>
      <point x="773" y="311"/>
      <point x="723" y="393"/>
      <point x="619" y="393" type="curve" smooth="yes"/>
      <point x="530" y="393"/>
      <point x="462" y="321"/>
    </contour>
    <contour>
      <point x="427" y="200" type="curve" smooth="yes"/>
      <point x="427" y="305"/>
      <point x="348" y="393"/>
      <point x="243" y="393" type="curve" smooth="yes"/>
      <point x="138" y="393"/>
      <point x="59" y="305"/>
      <point x="59" y="200" type="curve" smooth="yes"/>
      <point x="59" y="95"/>
      <point x="138" y="8"/>
      <point x="243" y="8" type="curve" smooth="yes"/>
      <point x="348" y="8"/>
      <point x="427" y="95"/>
    </contour>
  </outline>
</glyph>
<glyph name="florin" format="1">
  <advance width="241"/>
  <unicode hex="0192"/>
  <outline>
    <contour>
      <point x="114" y="401" type="line"/>
      <point x="202" y="401" type="line"/>
      <point x="200" y="381" type="line"/>
      <point x="112" y="381" type="line"/>
      <point x="72" y="-90" type="line" smooth="yes"/>
      <point x="66" y="-163"/>
      <point x="35" y="-179"/>
      <point x="-22" y="-179" type="curve" smooth="yes"/>
      <point x="-32" y="-179" type="line"/>
      <point x="-30" y="-159" type="line"/>
      <point x="-24" y="-159" type="line" smooth="yes"/>
      <point x="38" y="-159"/>
      <point x="46" y="-135"/>
      <point x="50" y="-88" type="curve" smooth="yes"/>
      <point x="91" y="381" type="line"/>
      <point x="35" y="381" type="line"/>
      <point x="37" y="401" type="line"/>
      <point x="92" y="401" type="line"/>
      <point x="113" y="640" type="line" smooth="yes"/>
      <point x="118" y="701"/>
      <point x="150" y="730"/>
      <point x="205" y="730" type="curve" smooth="yes"/>
      <point x="236" y="730" type="line"/>
      <point x="234" y="710" type="line"/>
      <point x="209" y="710" type="line" smooth="yes"/>
      <point x="147" y="710"/>
      <point x="138" y="674"/>
      <point x="135" y="639" type="curve" smooth="yes"/>
    </contour>
  </outline>
</glyph>
<glyph name="circumflex" format="1">
  <advance width="435"/>
  <unicode hex="02C6"/>
  <outline>
    <contour>
      <point x="225" y="608" type="line"/>
      <point x="329" y="484" type="line"/>
      <point x="309" y="484" type="line"/>
      <point x="216" y="578" type="line"/>
      <point x="125" y="484" type="line"/>
      <point x="106" y="484" type="line"/>
      <point x="208" y="608" type="line"/>
    </contour>
  </outline>
</glyph>
<glyph name="caron" format="1">
  <advance width="435"/>
  <unicode hex="02C7"/>
  <outline>
    <contour>
      <point x="209" y="484" type="line"/>
      <point x="106" y="608" type="line"/>
      <point x="126" y="608" type="line"/>
      <point x="218" y="514" type="line"/>
      <point x="310" y="608" type="line"/>
      <point x="329" y="608" type="line"/>
      <point x="226" y="484" type="line"/>
    </contour>
  </outline>
</glyph>
<glyph name="breve" format="1">
  <advance width="435"/>
  <unicode hex="02D8"/>
  <outline>
    <contour>
      <point x="344" y="607" type="line"/>
      <point x="344" y="528"/>
      <point x="286" y="480"/>
      <point x="219" y="480" type="curve" smooth="yes"/>
      <point x="152" y="480"/>
      <point x="94" y="528"/>
      <point x="94" y="607" type="curve"/>
      <point x="116" y="607" type="line"/>
      <point x="116" y="542"/>
      <point x="165" y="500"/>
      <point x="219" y="500" type="curve" smooth="yes"/>
      <point x="273" y="500"/>
      <point x="322" y="542"/>
      <point x="322" y="607" type="curve"/>
    </contour>
  </outline>
</glyph>
<glyph name="dotaccent" format="1">
  <advance width="417"/>
  <unicode hex="02D9"/>
  <outline>
    <contour>
      <point x="220" y="484" type="line"/>
      <point x="197" y="484" type="line"/>
      <point x="197" y="568" type="line"/>
      <point x="220" y="568" type="line"/>
    </contour>
  </outline>
</glyph>
<glyph name="ring" format="1">
  <advance width="430"/>
  <unicode hex="02DA"/>
  <outline>
    <contour>
      <point x="125" y="569" type="curve" smooth="yes"/>
      <point x="125" y="622"/>
      <point x="168" y="661"/>
      <point x="215" y="661" type="curve" smooth="yes"/>
      <point x="262" y="661"/>
      <point x="305" y="622"/>
      <point x="305" y="569" type="curve" smooth="yes"/>
      <point x="305" y="516"/>
      <point x="262" y="477"/>
      <point x="215" y="477" type="curve" smooth="yes"/>
      <point x="168" y="477"/>
      <point x="125" y="516"/>
    </contour>
    <contour>
      <point x="285" y="569" type="curve" smooth="yes"/>
      <point x="285" y="610"/>
      <point x="252" y="642"/>
      <point x="215" y="642" type="curve" smooth="yes"/>
      <point x="178" y="642"/>
      <point x="145" y="610"/>
      <point x="145" y="569" type="curve" smooth="yes"/>
      <point x="145" y="528"/>
      <point x="178" y="496"/>
      <point x="215" y="496" type="curve" smooth="yes"/>
      <point x="252" y="496"/>
      <point x="285" y="528"/>
    </contour>
  </outline>
</glyph>
<glyph name="ogonek" format="1">
  <advance width="440"/>
  <unicode hex="02DB"/>
  <outline>
    <contour>
      <point x="309" y="-143" type="line"/>
      <point x="280" y="-166"/>
      <point x="246" y="-179"/>
      <point x="212" y="-179" type="curve" smooth="yes"/>
      <point x="151" y="-179"/>
      <point x="115" y="-151"/>
      <point x="115" y="-100" type="curve" smooth="yes"/>
      <point x="115" y="-64"/>
      <point x="145" y="-20"/>
      <point x="206" y="12" type="curve"/>
      <point x="235" y="12" type="line"/>
      <point x="168" y="-23"/>
      <point x="135" y="-66"/>
      <point x="135" y="-99" type="curve" smooth="yes"/>
      <point x="135" y="-139"/>
      <point x="165" y="-160"/>
      <point x="212" y="-160" type="curve" smooth="yes"/>
      <point x="241" y="-160"/>
      <point x="272" y="-148"/>
      <point x="298" y="-127" type="curve"/>
    </contour>
  </outline>
</glyph>
<glyph name="tilde" format="1">
  <advance width="458"/>
  <unicode hex="02DC"/>
  <outline>
    <contour>
      <point x="94" y="484" type="line"/>
      <point x="94" y="537"/>
      <point x="118" y="576"/>
      <point x="155" y="576" type="curve" smooth="yes"/>
      <point x="181" y="576"/>
      <point x="201" y="561"/>
      <point x="225" y="541" type="curve" smooth="yes"/>
      <point x="249" y="521"/>
      <point x="270" y="499"/>
      <point x="288" y="499" type="curve" smooth="yes"/>
      <point x="313" y="499"/>
      <point x="328" y="525"/>
      <point x="328" y="573" type="curve"/>
      <point x="349" y="573" type="line"/>
      <point x="349" y="507"/>
      <point x="323" y="479"/>
      <point x="288" y="479" type="curve" smooth="yes"/>
      <point x="263" y="479"/>
      <point x="243" y="498"/>
      <point x="217" y="521" type="curve" smooth="yes"/>
      <point x="197" y="539"/>
      <point x="177" y="556"/>
      <point x="155" y="556" type="curve" smooth="yes"/>
      <point x="129" y="556"/>
      <point x="115" y="523"/>
      <point x="115" y="484" type="curve"/>
    </contour>
  </outline>
</glyph>
<glyph name="endash" format="1">
  <advance width="504"/>
  <unicode hex="2013"/>
  <outline>
    <contour>
      <point x="442" y="216" type="line"/>
      <point x="62" y="216" type="line"/>
      <point x="62" y="236" type="line"/>
      <point x="442" y="236" type="line"/>
    </contour>
  </outline>
</glyph>
<glyph name="emdash" format="1">
  <advance width="904"/>
  <unicode hex="2014"/>
  <outline>
    <contour>
      <point x="842" y="216" type="line"/>
      <point x="62" y="216" type="line"/>
      <point x="62" y="236" type="line"/>
      <point x="842" y="236" type="line"/>
    </contour>
  </outline>
</glyph>
<glyph name="quoteleft" format="1">
  <advance width="146"/>
  <unicode hex="2018"/>
  <unicode hex="02BB"/>
  <outline>
    <contour>
      <point x="118" y="730" type="line"/>
      <point x="94" y="696"/>
      <point x="84" y="663"/>
      <point x="84" y="624" type="curve" smooth="yes"/>
      <point x="84" y="553" type="line"/>
      <point x="62" y="553" type="line"/>
      <point x="62" y="622" type="line" smooth="yes"/>
      <point x="62" y="658"/>
      <point x="78" y="702"/>
      <point x="103" y="730" type="curve"/>
    </contour>
  </outline>
</glyph>
<glyph name="quoteright" format="1">
  <advance width="146"/>
  <unicode hex="2019"/>
  <unicode hex="02BC"/>
  <outline>
    <contour>
      <point x="28" y="553" type="line"/>
      <point x="52" y="587"/>
      <point x="62" y="620"/>
      <point x="62" y="659" type="curve" smooth="yes"/>
      <point x="62" y="730" type="line"/>
      <point x="84" y="730" type="line"/>
      <point x="84" y="661" type="line" smooth="yes"/>
      <point x="84" y="625"/>
      <point x="68" y="581"/>
      <point x="43" y="553" type="curve"/>
    </contour>
  </outline>
</glyph>
<glyph name="quotesinglbase" format="1">
  <advance width="146"/>
  <unicode hex="201A"/>
  <outline>
    <contour>
      <point x="28" y="-93" type="line"/>
      <point x="52" y="-59"/>
      <point x="62" y="-26"/>
      <point x="62" y="13" type="curve" smooth="yes"/>
      <point x="62" y="84" type="line"/>
      <point x="84" y="84" type="line"/>
      <point x="84" y="15" type="line" smooth="yes"/>
      <point x="84" y="-21"/>
      <point x="68" y="-65"/>
      <point x="43" y="-93" type="curve"/>
    </contour>
  </outline>
</glyph>
<glyph name="quotedblleft" format="1">
  <advance width="259"/>
  <unicode hex="201C"/>
  <outline>
    <contour>
      <point x="231" y="730" type="line"/>
      <point x="207" y="696"/>
      <point x="197" y="663"/>
      <point x="197" y="624" type="curve" smooth="yes"/>
      <point x="197" y="553" type="line"/>
      <point x="175" y="553" type="line"/>
      <point x="175" y="622" type="line" smooth="yes"/>
      <point x="175" y="658"/>
      <point x="191" y="702"/>
      <point x="216" y="730" type="curve"/>
    </contour>
    <contour>
      <point x="118" y="730" type="line"/>
      <point x="94" y="696"/>
      <point x="84" y="663"/>
      <point x="84" y="624" type="curve" smooth="yes"/>
      <point x="84" y="553" type="line"/>
      <point x="62" y="553" type="line"/>
      <point x="62" y="622" type="line" smooth="yes"/>
      <point x="62" y="658"/>
      <point x="78" y="702"/>
      <point x="103" y="730" type="curve"/>
    </contour>
  </outline>
</glyph>
<glyph name="quotedblright" format="1">
  <advance width="259"/>
  <unicode hex="201D"/>
  <outline>
    <contour>
      <point x="141" y="553" type="line"/>
      <point x="165" y="587"/>
      <point x="175" y="620"/>
      <point x="175" y="659" type="curve" smooth="yes"/>
      <point x="175" y="730" type="line"/>
      <point x="197" y="730" type="line"/>
      <point x="197" y="661" type="line" smooth="yes"/>
      <point x="197" y="625"/>
      <point x="181" y="581"/>
      <point x="156" y="553" type="curve"/>
    </contour>
    <contour>
      <point x="28" y="553" type="line"/>
      <point x="52" y="587"/>
      <point x="62" y="620"/>
      <point x="62" y="659" type="curve" smooth="yes"/>
      <point x="62" y="730" type="line"/>
      <point x="84" y="730" type="line"/>
      <point x="84" y="661" type="line" smooth="yes"/>
      <point x="84" y="625"/>
      <point x="68" y="581"/>
      <point x="43" y="553" type="curve"/>
    </contour>
  </outline>
</glyph>
<glyph name="quotedblbase" format="1">
  <advance width="259"/>
  <unicode hex="201E"/>
  <outline>
    <contour>
      <point x="141" y="-93" type="line"/>
      <point x="165" y="-59"/>
      <point x="175" y="-26"/>
      <point x="175" y="13" type="curve" smooth="yes"/>
      <point x="175" y="84" type="line"/>
      <point x="197" y="84" type="line"/>
      <point x="197" y="15" type="line" smooth="yes"/>
      <point x="197" y="-21"/>
      <point x="181" y="-65"/>
      <point x="156" y="-93" type="curve"/>
    </contour>
    <contour>
      <point x="28" y="-93" type="line"/>
      <point x="52" y="-59"/>
      <point x="62" y="-26"/>
      <point x="62" y="13" type="curve" smooth="yes"/>
      <point x="62" y="84" type="line"/>
      <point x="84" y="84" type="line"/>
      <point x="84" y="15" type="line" smooth="yes"/>
      <point x="84" y="-21"/>
      <point x="68" y="-65"/>
      <point x="43" y="-93" type="curve"/>
    </contour>
  </outline>
</glyph>
<glyph name="dagger" format="1">
  <advance width="488"/>
  <unicode hex="2020"/>
  <outline>
    <contour>
      <point x="466" y="408" type="line"/>
      <point x="255" y="408" type="line"/>
      <point x="255" y="17" type="line"/>
      <point x="252" y="-179" type="line"/>
      <point x="236" y="-179" type="line"/>
      <point x="233" y="17" type="line"/>
      <point x="233" y="408" type="line"/>
      <point x="22" y="408" type="line"/>
      <point x="22" y="428" type="line"/>
      <point x="233" y="428" type="line"/>
      <point x="233" y="730" type="line"/>
      <point x="255" y="730" type="line"/>
      <point x="255" y="428" type="line"/>
      <point x="466" y="428" type="line"/>
    </contour>
  </outline>
</glyph>
<glyph name="daggerdbl" format="1">
  <advance width="488"/>
  <unicode hex="2021"/>
  <outline>
    <contour>
      <point x="466" y="142" type="line"/>
      <point x="255" y="142" type="line"/>
      <point x="255" y="-179" type="line"/>
      <point x="233" y="-179" type="line"/>
      <point x="233" y="142" type="line"/>
      <point x="22" y="142" type="line"/>
      <point x="22" y="162" type="line"/>
      <point x="233" y="162" type="line"/>
      <point x="236" y="276" type="line"/>
      <point x="233" y="418" type="line"/>
      <point x="22" y="418" type="line"/>
      <point x="22" y="438" type="line"/>
      <point x="233" y="438" type="line"/>
      <point x="233" y="730" type="line"/>
      <point x="255" y="730" type="line"/>
      <point x="255" y="438" type="line"/>
      <point x="466" y="438" type="line"/>
      <point x="466" y="418" type="line"/>
      <point x="255" y="418" type="line"/>
      <point x="252" y="276" type="line"/>
      <point x="255" y="162" type="line"/>
      <point x="466" y="162" type="line"/>
    </contour>
  </outline>
</glyph>
<glyph name="ellipsis" format="1">
  <advance width="486"/>
  <unicode hex="2026"/>
  <outline>
    <contour>
      <point x="424" y="0" type="line"/>
      <point x="402" y="0" type="line"/>
      <point x="402" y="84" type="line"/>
      <point x="424" y="84" type="line"/>
    </contour>
    <contour>
      <point x="254" y="0" type="line"/>
      <point x="232" y="0" type="line"/>
      <point x="232" y="84" type="line"/>
      <point x="254" y="84" type="line"/>
    </contour>
    <contour>
      <point x="84" y="0" type="line"/>
      <point x="62" y="0" type="line"/>
      <point x="62" y="84" type="line"/>
      <point x="84" y="84" type="line"/>
    </contour>
  </outline>
</glyph>
<glyph name="guilsinglleft" format="1">
  <advance width="184"/>
  <unicode hex="2039"/>
  <outline>
    <contour>
      <point x="164" y="330" type="line"/>
      <point x="164" y="306" type="line"/>
      <point x="47" y="205" type="line"/>
      <point x="165" y="104" type="line"/>
      <point x="165" y="80" type="line"/>
      <point x="22" y="194" type="line"/>
      <point x="22" y="216" type="line"/>
    </contour>
  </outline>
</glyph>
<glyph name="guilsinglright" format="1">
  <advance width="184"/>
  <unicode hex="203A"/>
  <outline>
    <contour>
      <point x="20" y="330" type="line"/>
      <point x="162" y="216" type="line"/>
      <point x="162" y="194" type="line"/>
      <point x="19" y="80" type="line"/>
      <point x="19" y="104" type="line"/>
      <point x="137" y="205" type="line"/>
      <point x="20" y="306" type="line"/>
    </contour>
  </outline>
</glyph>
<glyph name="fraction" format="1">
  <advance width="363"/>
  <unicode hex="2044"/>
  <outline>
    <contour>
      <point x="405" y="730" type="line"/>
      <point x="-18" y="0" type="line"/>
      <point x="-42" y="0" type="line"/>
      <point x="381" y="730" type="line"/>
    </contour>
  </outline>
</glyph>
<glyph name="Euro" format="1">
  <advance width="540"/>
  <unicode hex="20AC"/>
  <outline>
    <contour>
      <point x="468" y="653" type="line"/>
      <point x="432" y="692"/>
      <point x="393" y="722"/>
      <point x="330" y="722" type="curve" smooth="yes"/>
      <point x="203" y="722"/>
      <point x="128" y="594"/>
      <point x="112" y="430" type="curve"/>
      <point x="392" y="430" type="line"/>
      <point x="392" y="410" type="line"/>
      <point x="110" y="410" type="line"/>
      <point x="109" y="393"/>
      <point x="108" y="376"/>
      <point x="108" y="358" type="curve" smooth="yes"/>
      <point x="108" y="340"/>
      <point x="109" y="322"/>
      <point x="110" y="304" type="curve"/>
      <point x="392" y="304" type="line"/>
      <point x="392" y="284" type="line"/>
      <point x="112" y="284" type="line"/>
      <point x="130" y="136"/>
      <point x="203" y="8"/>
      <point x="327" y="8" type="curve" smooth="yes"/>
      <point x="388" y="8"/>
      <point x="433" y="33"/>
      <point x="469" y="74" type="curve"/>
      <point x="486" y="61" type="line"/>
      <point x="446" y="15"/>
      <point x="396" y="-12"/>
      <point x="327" y="-12" type="curve" smooth="yes"/>
      <point x="193" y="-12"/>
      <point x="110" y="125"/>
      <point x="90" y="284" type="curve"/>
      <point x="20" y="284" type="line"/>
      <point x="20" y="304" type="line"/>
      <point x="88" y="304" type="line"/>
      <point x="87" y="322"/>
      <point x="86" y="340"/>
      <point x="86" y="358" type="curve" smooth="yes"/>
      <point x="86" y="376"/>
      <point x="87" y="393"/>
      <point x="88" y="410" type="curve"/>
      <point x="20" y="410" type="line"/>
      <point x="20" y="430" type="line"/>
      <point x="90" y="430" type="line"/>
      <point x="107" y="607"/>
      <point x="193" y="742"/>
      <point x="330" y="742" type="curve" smooth="yes"/>
      <point x="398" y="742"/>
      <point x="443" y="712"/>
      <point x="484" y="668" type="curve"/>
    </contour>
  </outline>
</glyph>
<glyph name="trademark" format="1">
  <advance width="811"/>
  <unicode hex="2122"/>
  <outline>
    <contour>
      <point x="369" y="292" type="line"/>
      <point x="369" y="730" type="line"/>
      <point x="391" y="730" type="line"/>
      <point x="554" y="494" type="line"/>
      <point x="717" y="730" type="line"/>
      <point x="739" y="730" type="line"/>
      <point x="739" y="292" type="line"/>
      <point x="717" y="292" type="line"/>
      <point x="717" y="694" type="line"/>
      <point x="562" y="469" type="line"/>
      <point x="546" y="469" type="line"/>
      <point x="391" y="694" type="line"/>
      <point x="391" y="292" type="line"/>
    </contour>
    <contour>
      <point x="291" y="710" type="line"/>
      <point x="164" y="710" type="line"/>
      <point x="164" y="292" type="line"/>
      <point x="142" y="292" type="line"/>
      <point x="142" y="710" type="line"/>
      <point x="27" y="710" type="line"/>
      <point x="27" y="730" type="line"/>
      <point x="291" y="730" type="line"/>
    </contour>
  </outline>
</glyph>
<glyph name="minus" format="1">
  <advance width="483"/>
  <unicode hex="2212"/>
  <outline>
    <contour>
      <point x="446" y="320" type="line"/>
      <point x="37" y="320" type="line"/>
      <point x="37" y="340" type="line"/>
      <point x="446" y="340" type="line"/>
    </contour>
  </outline>
</glyph>
<glyph name="radical" format="1">
  <advance width="505"/>
  <unicode hex="221A"/>
  <outline>
    <contour>
      <point x="478" y="730" type="line"/>
      <point x="196" y="-30" type="line"/>
      <point x="21" y="316" type="line"/>
      <point x="45" y="316" type="line"/>
      <point x="193" y="24" type="line"/>
      <point x="455" y="730" type="line"/>
    </contour>
  </outline>
</glyph>
<glyph name="f_f" format="1">
  <advance width="406"/>
  <unicode hex="FB00"/>
  <outline>
    <contour>
      <point x="99" y="381" type="line"/>
      <point x="99" y="0" type="line"/>
      <point x="77" y="0" type="line"/>
      <point x="77" y="381" type="line"/>
      <point x="7" y="381" type="line"/>
      <point x="7" y="401" type="line"/>
      <point x="77" y="401" type="line"/>
      <point x="77" y="647" type="line" smooth="yes"/>
      <point x="77" y="714"/>
      <point x="105" y="740"/>
      <point x="168" y="740" type="curve" smooth="yes"/>
      <point x="197" y="740" type="line"/>
      <point x="197" y="720" type="line"/>
      <point x="167" y="720" type="line" smooth="yes"/>
      <point x="111" y="720"/>
      <point x="99" y="697"/>
      <point x="99" y="648" type="curve" smooth="yes"/>
      <point x="99" y="401" type="line"/>
      <point x="280" y="401" type="line"/>
      <point x="280" y="647" type="line" smooth="yes"/>
      <point x="280" y="714"/>
      <point x="308" y="740"/>
      <point x="371" y="740" type="curve" smooth="yes"/>
      <point x="400" y="740" type="line"/>
      <point x="400" y="720" type="line"/>
      <point x="370" y="720" type="line" smooth="yes"/>
      <point x="314" y="720"/>
      <point x="302" y="697"/>
      <point x="302" y="648" type="curve" smooth="yes"/>
      <point x="302" y="401" type="line"/>
      <point x="395" y="401" type="line"/>
      <point x="395" y="381" type="line"/>
      <point x="302" y="381" type="line"/>
      <point x="302" y="0" type="line"/>
      <point x="280" y="0" type="line"/>
      <point x="280" y="381" type="line"/>
    </contour>
  </outline>
</glyph>
<glyph name="f_f_l" format="1">
  <advance width="552"/>
  <unicode hex="FB04"/>
  <outline>
    <contour>
      <point x="490" y="0" type="line"/>
      <point x="468" y="0" type="line"/>
      <point x="468" y="740" type="line"/>
      <point x="490" y="740" type="line"/>
    </contour>
    <contour>
      <point x="99" y="381" type="line"/>
      <point x="99" y="0" type="line"/>
      <point x="77" y="0" type="line"/>
      <point x="77" y="381" type="line"/>
      <point x="7" y="381" type="line"/>
      <point x="7" y="401" type="line"/>
      <point x="77" y="401" type="line"/>
      <point x="77" y="647" type="line" smooth="yes"/>
      <point x="77" y="714"/>
      <point x="105" y="740"/>
      <point x="168" y="740" type="curve" smooth="yes"/>
      <point x="197" y="740" type="line"/>
      <point x="197" y="720" type="line"/>
      <point x="167" y="720" type="line" smooth="yes"/>
      <point x="111" y="720"/>
      <point x="99" y="697"/>
      <point x="99" y="648" type="curve" smooth="yes"/>
      <point x="99" y="401" type="line"/>
      <point x="280" y="401" type="line"/>
      <point x="280" y="647" type="line" smooth="yes"/>
      <point x="280" y="714"/>
      <point x="308" y="740"/>
      <point x="371" y="740" type="curve" smooth="yes"/>
      <point x="400" y="740" type="line"/>
      <point x="400" y="720" type="line"/>
      <point x="370" y="720" type="line" smooth="yes"/>
      <point x="314" y="720"/>
      <point x="302" y="697"/>
      <point x="302" y="648" type="curve" smooth="yes"/>
      <point x="302" y="401" type="line"/>
      <point x="395" y="401" type="line"/>
      <point x="395" y="381" type="line"/>
      <point x="302" y="381" type="line"/>
      <point x="302" y="0" type="line"/>
      <point x="280" y="0" type="line"/>
      <point x="280" y="381" type="line"/>
    </contour>
  </outline>
</glyph>
<glyph name="bullet" format="1">
  <advance width="268"/>
  <outline>
    <contour>
      <point x="196" y="379" type="curve" smooth="yes"/>
      <point x="196" y="345"/>
      <point x="168" y="317"/>
      <point x="134" y="317" type="curve" smooth="yes"/>
      <point x="100" y="317"/>
      <point x="72" y="345"/>
      <point x="72" y="379" type="curve" smooth="yes"/>
      <point x="72" y="413"/>
      <point x="100" y="441"/>
      <point x="134" y="441" type="curve" smooth="yes"/>
      <point x="168" y="441"/>
      <point x="196" y="413"/>
    </contour>
  </outline>
</glyph>
<glyph name="f_l" format="1">
  <advance width="349"/>
  <outline>
    <contour>
      <point x="287" y="0" type="line"/>
      <point x="265" y="0" type="line"/>
      <point x="265" y="740" type="line"/>
      <point x="287" y="740" type="line"/>
    </contour>
    <contour>
      <point x="197" y="720" type="line"/>
      <point x="167" y="720" type="line" smooth="yes"/>
      <point x="111" y="720"/>
      <point x="99" y="697"/>
      <point x="99" y="648" type="curve" smooth="yes"/>
      <point x="99" y="401" type="line"/>
      <point x="192" y="401" type="line"/>
      <point x="192" y="381" type="line"/>
      <point x="99" y="381" type="line"/>
      <point x="99" y="0" type="line"/>
      <point x="77" y="0" type="line"/>
      <point x="77" y="381" type="line"/>
      <point x="7" y="381" type="line"/>
      <point x="7" y="401" type="line"/>
      <point x="77" y="401" type="line"/>
      <point x="77" y="647" type="line" smooth="yes"/>
      <point x="77" y="714"/>
      <point x="105" y="740"/>
      <point x="168" y="740" type="curve" smooth="yes"/>
      <point x="197" y="740" type="line"/>
    </contour>
  </outline>
</glyph>
<glyph name="onesuperior" format="1">
  <advance width="283"/>
  <outline>
    <contour>
      <point x="153" y="355" type="line"/>
      <point x="153" y="684" type="line"/>
      <point x="139" y="668"/>
      <point x="115" y="652"/>
      <point x="89" y="649" type="curve"/>
      <point x="89" y="670" type="line"/>
      <point x="120" y="673"/>
      <point x="148" y="699"/>
      <point x="157" y="730" type="curve"/>
      <point x="174" y="730" type="line"/>
      <point x="174" y="355" type="line"/>
    </contour>
  </outline>
</glyph>
<glyph name="threesuperior" format="1">
  <advance width="426"/>
  <outline>
    <contour>
      <point x="167" y="551" type="line"/>
      <point x="167" y="571" type="line"/>
      <point x="218" y="571" type="line" smooth="yes"/>
      <point x="265" y="571"/>
      <point x="293" y="607"/>
      <point x="293" y="647" type="curve" smooth="yes"/>
      <point x="293" y="692"/>
      <point x="257" y="720"/>
      <point x="211" y="720" type="curve" smooth="yes"/>
      <point x="165" y="720"/>
      <point x="138" y="700"/>
      <point x="116" y="668" type="curve"/>
      <point x="98" y="679" type="line"/>
      <point x="125" y="716"/>
      <point x="159" y="740"/>
      <point x="211" y="740" type="curve" smooth="yes"/>
      <point x="271" y="740"/>
      <point x="314" y="704"/>
      <point x="314" y="647" type="curve" smooth="yes"/>
      <point x="314" y="608"/>
      <point x="292" y="575"/>
      <point x="263" y="562" type="curve"/>
      <point x="301" y="550"/>
      <point x="329" y="516"/>
      <point x="329" y="467" type="curve" smooth="yes"/>
      <point x="329" y="397"/>
      <point x="277" y="353"/>
      <point x="205" y="353" type="curve" smooth="yes"/>
      <point x="151" y="353"/>
      <point x="110" y="378"/>
      <point x="80" y="415" type="curve"/>
      <point x="95" y="429" type="line"/>
      <point x="123" y="395"/>
      <point x="159" y="373"/>
      <point x="205" y="373" type="curve" smooth="yes"/>
      <point x="264" y="373"/>
      <point x="308" y="409"/>
      <point x="308" y="466" type="curve" smooth="yes"/>
      <point x="308" y="518"/>
      <point x="273" y="551"/>
      <point x="215" y="551" type="curve" smooth="yes"/>
    </contour>
  </outline>
</glyph>
